<svg id="Layer_2" data-name="Layer 2" xmlns="http://www.w3.org/2000/svg" viewBox="0 0 286.82 333.13"><path d="M143.66,282.85c18.81.54,36.85-5.85,51.68-17.29,13.77-10.63,24.6-24.41,35.78-37.6a279.63,279.63,0,0,1,40-39.11,218.44,218.44,0,0,1,23.41-16.41,31.58,31.58,0,0,1,6.53-3.12,17,17,0,0,1,3.14-.7c.71-.08,2.61-.4,3.2.17s-.05,1.82-.26,2.43a33,33,0,0,1-1.38,3.31,41.33,41.33,0,0,1-3.18,5.46c-10.34,15.09-28.07,22.43-41.4,34.33-1.72,1.54-3.37,3.16-4.93,4.86a1.52,1.52,0,0,0,.67,2.51c6.2,1.41,12.53.37,18.54-1.42a128,128,0,0,0,17.33-6.66c5.52-2.56,10.75-5.63,16-8.64,5-2.84,10.09-5.57,15.69-6.93,1.84-.44,6-1.83,7,.55.86,2-.6,4.07-2.19,5.22a52.11,52.11,0,0,1-7.48,3.91q-4.28,2.13-8.51,4.34-17,8.85-33.16,19c-4.73,3-9.55,5.93-13.54,9.87-3,2.93-9.1,9.94-2.85,12.81,2.32,1.06,5.15,1.16,7.66,1.26a56.79,56.79,0,0,0,8.35-.33c5.71-.6,11.32-1.79,17-2.77a68.32,68.32,0,0,1,16.57-1.3,28,28,0,0,1,8,1.55c1,.39,1.93.86,1.08,1.94A27.94,27.94,0,0,1,319.5,257a88.65,88.65,0,0,1-26.23,16.83A154.13,154.13,0,0,1,262.52,283c-5.36,1.08-10.77,1.93-16.18,2.73-6.2.92-12.41,2-18.25,4.34a86.63,86.63,0,0,0-15.45,8.63c-5.32,3.58-10.57,7.26-15.85,10.89s-10.57,7.31-15.88,10.93a135.74,135.74,0,0,1-14.81,9.06c-9.15,4.65-19.43,7.3-29.57,4.59-8.87-2.38-17.89-9.53-17.63-19.57.13-5.11,3.89-10,9.33-9.72,3,.16,5.7.94,8.7.48a16.39,16.39,0,0,0,7.44-3.15c2-1.57,2.83-4,1.31-6.23s-4.2-2.74-6.76-2.86a27.85,27.85,0,0,1-13.58-4,26.71,26.71,0,0,1-13-23.68,28.45,28.45,0,0,1,4.18-13.59,26.76,26.76,0,0,1,4.45-5.5c1.62-1.54,4-3.8,6.39-3.82s4.56,2.48,6.46,3.71a31.87,31.87,0,0,0,6.6,3.25,35.4,35.4,0,0,0,28-1.87,31.07,31.07,0,0,0,5.94-4c2-1.74,3.84-3.78,6.09-5.25a7.45,7.45,0,0,1,5.86-1.4c1.65.38,3.43,1.42,3.54,3.29s3.11,1.93,3,0c-.27-4.72-5.34-7-9.57-6.31-5.3.88-8.61,5.93-12.71,8.87a32.15,32.15,0,0,1-28.47,4.1,28.82,28.82,0,0,1-6.58-3.14c-2.18-1.4-4.14-3.51-6.76-4.07-2.84-.61-5.38.93-7.54,2.58a28.7,28.7,0,0,0-5.2,5.13c-6.12,7.84-8.45,18.75-5.19,28.27a31,31,0,0,0,20.91,19.46,34.1,34.1,0,0,0,7.45,1,6,6,0,0,1,3.53.91c1.16.95,1,2-.12,2.82a13.49,13.49,0,0,1-8,2.71c-3.06,0-6-1.11-9.08-.49-5,1-8.63,5.72-9.34,10.64-.79,5.47,1.34,11,4.75,15.18,5.94,7.34,16,10.59,25.18,10.4,11.56-.24,22.25-5.9,31.72-12,11.1-7.2,21.86-15,32.76-22.45a119.37,119.37,0,0,1,15.73-9.64c5.81-2.79,12-4.16,18.38-5.15,11.23-1.75,22.39-3.51,33.34-6.64A118.78,118.78,0,0,0,308,269.59a83.62,83.62,0,0,0,13-9.91c1-.89,1.9-1.81,2.81-2.76a5.52,5.52,0,0,0,2-3.47c.12-2.72-2.6-3.93-4.81-4.56-11.27-3.26-23-.17-34.25,1.76-5.8,1-11.71,1.74-17.59,1.18a14.83,14.83,0,0,1-3.74-.66c-1.64-.63-1.59-1.62-.74-3a27,27,0,0,1,5.27-6.21c4.49-4.06,9.86-7.14,15-10.29q8.44-5.19,17.1-10t17.48-9.33c2.89-1.47,5.82-2.87,8.72-4.33,2.21-1.12,4.51-2.55,5.7-4.81a6.73,6.73,0,0,0,0-6.29c-1.44-2.56-4.32-2.67-6.92-2.31-5.88.83-11.36,3.27-16.54,6.07-5.4,2.92-10.59,6.19-16.09,8.93a129.72,129.72,0,0,1-18.19,7.38c-6,1.9-12.31,3.32-18.53,1.9l.67,2.51c12.72-13.9,31.15-21,43.41-35.4A45.41,45.41,0,0,0,308.86,175c.82-1.85,1.93-4,1.7-6.1-.24-2.26-2.14-3.2-4.2-3.31-4.84-.25-9.48,2-13.53,4.41s-8.19,5.26-12.16,8a263.83,263.83,0,0,0-43.82,38.81c-12,13.27-22.59,27.82-35.77,40A94.19,94.19,0,0,1,179.68,272,75.1,75.1,0,0,1,151,279.72q-3.69.24-7.38.13c-1.93-.06-1.93,2.94,0,3Z" transform="translate(-47.94 -31.15)"/><path d="M173.84,34.73a8.34,8.34,0,0,1,9.56,2.54c2.46,3.23,2,7.23-.15,10.46a56,56,0,0,1-7.75,8.6c-2.68,2.64-5.49,5.15-8.37,7.56-11.7,9.77-24.7,17.81-37.45,26.11s-25.38,16.87-36.27,27.5a58.86,58.86,0,0,0-7.81,8.88c-2.08,3.06-3.88,6.88-3.84,10.67a4.33,4.33,0,0,0,2.45,4.21c1.63.67,3.42.1,4.92-.65A106.89,106.89,0,0,0,100,133.77,252.15,252.15,0,0,0,121.17,118c3.25-2.7,6.33-5.62,9.66-8.21s7-4.74,11.11-5.2a12.63,12.63,0,0,1,5.72.67l-1-1.85a25,25,0,0,1-5.72,9.93,93.33,93.33,0,0,1-8.36,8.28A200.58,200.58,0,0,1,113.74,136c-6.51,4.54-13.11,8.93-19.49,13.63C88.06,154.23,81.6,159,76.65,165a27.54,27.54,0,0,0-5.48,9.68c-.94,3.15-1.27,7.32,1.78,9.46a12,12,0,0,0,5.46,1.64,24.49,24.49,0,0,0,5.74,0,35.38,35.38,0,0,0,11.1-3.3c7.29-3.45,13.54-8.72,19.51-14.06s11.77-11.08,17.58-16.71,11.64-11.16,17.88-16.26c3.12-2.56,6.34-5,9.69-7.24,1.78-1.2,7.72-5.19,8.49-.87a8,8,0,0,1-1,4.55c-.81,1.68-1.79,3.3-2.72,4.91-2,3.35-4,6.64-5.91,10-3.65,6.46-6.89,13.45-7.2,21-.15,3.53.26,7.38,2.08,10.47a10.29,10.29,0,0,0,8.36,5c7.5.47,14.31-5.08,19.25-10.08a74.59,74.59,0,0,0,7.73-9.28,35.11,35.11,0,0,0,5.38-10.64,17.43,17.43,0,0,0-.45-11.32c-.76-1.85-1.81-3.59-2.45-5.49a13.84,13.84,0,0,1-.69-5.38c.26-3.9,2-7.57,4.06-10.84a73.58,73.58,0,0,1,7.36-9.6c2.61-3,5.5-5.79,9.23-7.33s7.81-2,11.77-2.59A107.74,107.74,0,0,0,267.2,84a108.54,108.54,0,0,0,9.31-6.93c1.49-1.23-.64-3.35-2.12-2.12a104.31,104.31,0,0,1-41.34,20.81A115.14,115.14,0,0,1,221.56,98a45.53,45.53,0,0,0-11.46,2.69,26.72,26.72,0,0,0-9.17,6.93,89.73,89.73,0,0,0-7.35,9.15c-4.25,6.14-7.63,13.93-4.7,21.34.74,1.87,1.79,3.6,2.47,5.49a13.57,13.57,0,0,1,.75,5.47c-.25,3.89-2,7.58-4,10.85a64.21,64.21,0,0,1-7.29,9.46,47.07,47.07,0,0,1-8.95,7.84,16.74,16.74,0,0,1-9.64,3.1c-3.56-.16-6-2.63-7-5.95-2.05-7,.39-14.65,3.44-20.93,3.3-6.8,7.75-13,11.16-19.69,1.37-2.7,2.53-6.38.6-9.1-2.24-3.17-6.33-2.32-9.27-.75a70.65,70.65,0,0,0-9.55,6.66c-3.12,2.41-6.15,4.94-9.1,7.55-11.88,10.51-22.61,22.27-34.78,32.47-6,5-12.69,9.72-20.35,11.62a22.3,22.3,0,0,1-11.24.1,3.33,3.33,0,0,1-2.66-3.71,14.13,14.13,0,0,1,1.23-5c2.88-6.93,9.26-12,15-16.62,6.08-4.88,12.51-9.3,18.93-13.71s12.79-8.79,18.9-13.57,12-9.81,16.83-15.8a26.37,26.37,0,0,0,5.17-9.66,1.55,1.55,0,0,0-1-1.85c-8.2-2.94-16.08,2.1-22.09,7.23-6.68,5.71-13.35,11.35-20.48,16.49q-5.33,3.84-10.85,7.4-2.81,1.81-5.66,3.54c-.87.53-3.63,2.55-4.45,1.1a4.63,4.63,0,0,1,0-2.61,16.26,16.26,0,0,1,.79-2.91,22.12,22.12,0,0,1,2.84-5.18,62,62,0,0,1,7.85-8.59c11.1-10.65,24-19.19,36.82-27.52s25.89-16.55,37.55-26.55q4.29-3.68,8.27-7.67c2.71-2.75,5.73-5.64,7.57-9.07,3.69-6.89-.2-15.66-8.17-16.73a11.24,11.24,0,0,0-5.39.57c-1.8.66-1,3.56.8,2.9Z" transform="translate(-47.94 -31.15)"/><path d="M92.51,98.39c-3.28,2.23-7.87.51-9.84-2.69-2.58-4.17-1.5-9.67.54-13.82,4-8.16,12.14-13.54,20.7-16,2.18-.63,5-1.6,7.25-.84,2.08.71,3.66,2.74,4.64,4.62a13.92,13.92,0,0,1,.43,11.67c-1.9,4.5-6.31,7-10.79,8.34-2.35.71-5.27,1.73-7.65.7-1.86-.8-4.54-2.42-5.22-4.44a2.94,2.94,0,0,1-.11-1.44c.05-.24.46-1,.33-1A5.86,5.86,0,0,1,95,83.45a16.06,16.06,0,0,1,2.39.28A32,32,0,0,1,105.89,87c3.85,2,10.24,4.77,10.62,9.81.14,1.91,3.14,1.93,3,0-.44-5.86-5.88-9-10.53-11.56a43.74,43.74,0,0,0-9.34-4.06,21,21,0,0,0-4.24-.72c-1.55-.09-3.42-.23-4.59.94-1.89,1.89-1.7,5-.25,7.1a14.12,14.12,0,0,0,7.24,5c3,.79,6.4-.31,9.22-1.23A22.83,22.83,0,0,0,115,88a16.11,16.11,0,0,0,5.1-14.21c-.65-5-4-11.12-9.45-11.85-3-.4-6.22.62-9,1.53a42.47,42.47,0,0,0-7.55,3.28,33.78,33.78,0,0,0-12.08,11.1c-3.42,5.37-5.38,12.56-2.44,18.57,2.47,5,9.49,8,14.41,4.6,1.59-1.08.09-3.68-1.51-2.59Z" transform="translate(-47.94 -31.15)"/><path d="M195.66,111.07c1.52,9.74,5.41,19.7,13,26.28,7.46,6.45,17.82,9.23,27.18,5.45,8.21-3.32,18.23-11.39,16.7-21.35a15.05,15.05,0,0,0-7.63-10.53,20.21,20.21,0,0,0-14.73-1.46,26.79,26.79,0,0,0-18.88,18.84,36.83,36.83,0,0,0-.37,15.88,42.26,42.26,0,0,0,5.16,14.64c4.85,8,15.32,14.05,24.27,8.67,3.6-2.16,6.54-6.18,6.35-10.53-.23-5.14-6.78-8-11.26-6.51-3.8,1.27-5.92,5.24-6,9.09-.13,4.63,2.88,8.61,6.36,11.34,4,3.14,8.82,4.9,13,7.69s7.15,6.87,9.55,11.25c1.17,2.15,2.22,4.36,3.27,6.58.82,1.74,3.41.22,2.59-1.52A71.87,71.87,0,0,0,258,183.47a29.79,29.79,0,0,0-9.44-8.61c-3.79-2.2-8-3.85-11.37-6.7-2.77-2.35-5.2-5.67-4.66-9.5s3.5-6.41,7.35-5.3c2.2.63,4.06,2,3.85,4.44a8.54,8.54,0,0,1-2.08,4.76,11.45,11.45,0,0,1-10.28,3.85A17.25,17.25,0,0,1,220.62,160a31.91,31.91,0,0,1-5.71-11.91,41,41,0,0,1-1.54-14,24.31,24.31,0,0,1,12.82-19.89c7.31-3.83,18-3.66,22.33,4.46s-3.74,15.92-10.26,19.66a22.74,22.74,0,0,1-12.47,3.23,24.72,24.72,0,0,1-11.78-4c-7.36-4.67-11.83-12.6-14.09-20.84a59.34,59.34,0,0,1-1.36-6.49c-.3-1.9-3.19-1.09-2.9.8Z" transform="translate(-47.94 -31.15)"/><path d="M265.59,284.84c-.87,15.73-4.83,32.43-17,43.38-5.26,4.73-11.94,8.23-19,8.93-3.46.34-7.74.28-8.65-3.85-.83-3.76,1.73-7.55,3.7-10.54.82-1.24,2.1-2.86,3.8-2.46s1,2.79.79,3.94a23,23,0,0,1-3.47,9.15,11.8,11.8,0,0,1-7.69,5.25c-4.2.75-8.47-.83-12.54-1.67-8.93-1.83-17.53.71-26,3.42-3.8,1.21-7.61,2.63-10.75,5.15s-5.18,6-8,8.76c-5.23,5.13-12.76,7.1-19.92,7-8.44-.14-16.53-3.26-24.07-6.79q-2.88-1.35-5.74-2.78c-1.73-.85-3.25,1.74-1.51,2.6,8.48,4.19,17.21,8.35,26.68,9.61,7.92,1.06,16.59-.13,23.28-4.73,3.66-2.5,6-6,9-9.24s7-5.09,11.24-6.47a90.23,90.23,0,0,1,14.62-3.87,30.37,30.37,0,0,1,7.44-.22,56.47,56.47,0,0,1,6.92,1.38c4.38,1,8.94,1.7,13.19-.19a16.2,16.2,0,0,0,7.35-7.13,26.54,26.54,0,0,0,3.18-10.71c.15-1.87-.3-3.81-2-4.84a5.27,5.27,0,0,0-4.94-.06c-1.84.9-3,2.7-4.05,4.38a27.38,27.38,0,0,0-3.1,6.22c-1.12,3.63-.5,8.1,2.84,10.37s8.24,1.57,12,.81a35.61,35.61,0,0,0,10.93-4.32c15.41-9.17,22.05-26.65,24-43.7q.38-3.37.55-6.76c.11-1.93-2.89-1.92-3,0Z" transform="translate(-47.94 -31.15)"/><path d="M92.72,97.64h-.46a1.15,1.15,0,0,0-.58.13,1.36,1.36,0,0,0-.79.79,1.15,1.15,0,0,0-.13.58l0,.4a1.59,1.59,0,0,0,.39.66l.3.24a1.57,1.57,0,0,0,.76.2h.46a1.15,1.15,0,0,0,.58-.13,1.36,1.36,0,0,0,.79-.79,1.15,1.15,0,0,0,.13-.58l0-.4a1.59,1.59,0,0,0-.39-.66l-.3-.24a1.57,1.57,0,0,0-.76-.2Z" transform="translate(-47.94 -31.15)"/><path d="M49.56,134.23c7.63,2.08,16-.66,21.46-6.29a20.07,20.07,0,0,0,5.44-10.35c.78-4.48-.36-9.7-4.9-11.73-4.7-2.1-8.84,1.59-11.89,4.8a48.71,48.71,0,0,0-8.53,12.17c-2,4.18-3.43,9-2.45,13.65,1,4.86,5.23,7.56,7.57,11.68a21,21,0,0,1,2.56,12.41c-.51,5-3.17,8.92-5.9,12.94s-5.35,8.55-4.94,13.55a11.7,11.7,0,0,0,6.67,9.49c3.65,1.86,7.65,2.39,11.64,3s8.54,1.33,11.5,4.33c3.33,3.36,3.16,8.56,1.92,12.79-1.46,5-4.07,9.62-5.69,14.58A65,65,0,0,0,71,246.65c-.31,4.4.25,9.14,3.35,12.52s7.71,4.38,12,5.15,9.73,1.56,12.19,5.8a5.54,5.54,0,0,1,.44,5.3c-.88,1.72,1.71,3.24,2.59,1.51,1.85-3.62.56-7.79-2.17-10.6-3.19-3.28-8-4.12-12.26-4.9-4-.72-8.75-1.58-11.25-5.12s-2.11-8.47-1.57-12.58A65.14,65.14,0,0,1,78,229c1.74-4.59,4.27-9,5.17-13.84.8-4.31.37-9-2.43-12.49-2.49-3.14-6.38-4.62-10.19-5.43-6.36-1.35-17.55-1-19.4-9.19-1.06-4.63,1.77-9.18,4.25-12.84,2.57-3.81,5.15-7.58,6.07-12.17a24,24,0,0,0-.82-12.41,22.69,22.69,0,0,0-2.8-5.59c-1.3-1.86-3-3.39-4.34-5.19-2.84-3.74-2.44-8.44-1-12.65a40.4,40.4,0,0,1,7.23-12.15A37,37,0,0,1,64.71,110c1.65-1.33,3.76-2.36,5.82-1.31,4.15,2.13,3.55,7.79,2.11,11.43-2.65,6.72-9.76,11.48-16.92,11.82a17.41,17.41,0,0,1-5.37-.59,1.5,1.5,0,0,0-.79,2.89Z" transform="translate(-47.94 -31.15)"/><path d="M190.48,79.4l2.85.42-1.1-1.45c-.35,2.64-2.88,6.59-6,4.7a2.76,2.76,0,0,1-.76-3.55,6,6,0,0,1,3.49-3,21.71,21.71,0,0,1,5.38-1.26,2.26,2.26,0,0,1,2.79,2.24c.27,2.73-1.53,5.46-3.39,7.28-4.24,4.13-10.56,5.69-16.21,6.69-2.43.43-7,1-7-2.67,0-3.35,3-6.38,5.33-8.39a81.94,81.94,0,0,1,9.28-6.26c3.6-2.28,7.16-4.71,10.88-6.79,3-1.69,6.5-3,10-2.12,3,.79,5.2,3.29,4.82,6.53s-2.87,6.37-5.2,8.65a70.72,70.72,0,0,1-8.74,7.07,91.14,91.14,0,0,1-20,10.71,27.86,27.86,0,0,1-9.18,2.3c-2.47.06-5.31-.53-6.36-3-1.4-3.35,1.4-7.15,3.4-9.6a108,108,0,0,1,7.75-8.53,105.38,105.38,0,0,1,18-14.36c6.4-4,13.77-7.5,21.49-7.42,3.46,0,7.39.75,10.16,2.95s3.2,5.65,2.15,8.89a25.16,25.16,0,0,1-5.7,8.86,96.14,96.14,0,0,1-7.35,7.21c-10.4,9.19-22.57,16.09-34.84,22.42-12.43,6.41-25.16,12.28-37.21,19.42a167.43,167.43,0,0,0-35.67,28.27q-3.9,4.09-7.52,8.45c-1.23,1.48.88,3.61,2.12,2.12a163.28,163.28,0,0,1,39.39-34.31c13.58-8.42,28.19-15,42.33-22.36C193.79,102.2,207.46,94,218.5,82.76c4.92-5,11.82-12.78,8.73-20.43-3.2-7.95-14.27-8.6-21.42-7.17-8.55,1.71-16.29,6.5-23.22,11.61a110.13,110.13,0,0,0-19.11,17.94c-2.54,3-5.34,6.55-5.46,10.7a7.68,7.68,0,0,0,5.37,7.5c3.08,1.06,6.66.6,9.73-.25a71.87,71.87,0,0,0,11.64-4.6,94.09,94.09,0,0,0,21.37-14c5-4.39,11.71-13.49,4.93-19.46A11.81,11.81,0,0,0,201,62.21c-4.39.85-8.2,3.58-11.91,5.92-3.95,2.5-8,4.91-11.85,7.56-3.17,2.16-6.26,4.69-8.14,8.1-1.78,3.21-2.5,8,1.32,10.08,3,1.66,6.91.74,10.1.06,6.46-1.35,13.55-3.82,17.44-9.51,1.82-2.67,3.05-6.39,1.57-9.48-1.88-3.92-6.87-2.66-10.18-1.7-3.57,1-6.88,3.45-7.16,7.45-.26,3.82,3.26,6.28,6.83,5.66,3.87-.68,5.78-4.42,6.26-8a1.5,1.5,0,0,0-1.1-1.44l-2.85-.42c-1.89-.28-2.71,2.62-.8,2.89Z" transform="translate(-47.94 -31.15)"/><path d="M79.91,167.31l-3.38,9.29c-.75,2.06-1.24,4.61,1.25,5.6a1.46,1.46,0,0,0,1.46-.38c5.7-5.83,6.07-14.54,10.86-20.91l-2.74-1.16a159.77,159.77,0,0,0-5,23.63A1.51,1.51,0,0,0,85,184.44a20.27,20.27,0,0,0,3.3-6.46c.89-2.57,1.81-5.11,2.9-7.61A96.66,96.66,0,0,1,99,155.93l-2.74-1.16a117,117,0,0,0-4.8,24.93,1.51,1.51,0,0,0,2.25,1.3,7.77,7.77,0,0,0,2.81-3.17,40.4,40.4,0,0,0,2-3.84,84.69,84.69,0,0,0,3.31-8.29c2-5.64,3.79-11.39,7-16.49l-2.74-1.16a87.85,87.85,0,0,0-3.89,20.82c-.13,1.93,2.87,1.92,3,0a84.29,84.29,0,0,1,3.78-20c.52-1.66-1.86-2.56-2.74-1.15-3,4.83-4.89,10.26-6.75,15.62-.91,2.64-1.83,5.28-3,7.84-.59,1.33-1.22,2.63-1.93,3.9-.61,1.1-1.3,2.75-2.46,3.35l2.26,1.29a114.06,114.06,0,0,1,4.69-24.13c.52-1.68-1.84-2.54-2.74-1.16a96.08,96.08,0,0,0-7.62,14c-1,2.35-2,4.73-2.83,7.15s-1.49,4.79-3.08,6.73l2.56,1.06a154.54,154.54,0,0,1,4.86-22.83c.51-1.75-1.78-2.44-2.75-1.16-4.61,6.15-4.94,14.73-10.39,20.31l1.46-.39c.48.19.25.05.34-.44a8.36,8.36,0,0,1,.33-1c.39-1.09.79-2.17,1.19-3.25l2.36-6.51c.66-1.81-2.23-2.6-2.89-.8Z" transform="translate(-47.94 -31.15)"/><path d="M208.67,279.31c4.23-.81,9.05-2.09,11.79-5.67a7.46,7.46,0,0,0,1.53-6.29c-.74-2.67-3.29-3.57-5.82-3.14-5,.84-10,3.8-13.75,7.2-3.48,3.15-8,8.29-6.9,13.39,1.24,5.77,9,6,13.39,4.45,5.39-1.89,10-5.8,14.32-9.42a55.4,55.4,0,0,0,6.41-6.22c1.75-2,3.82-4.42,4.32-7.14,1.13-6.19-7-7.86-11.51-7.43-5.86.55-11.52,3.16-16.75,5.7a91.62,91.62,0,0,0-15.24,9.1c-4.13,3.11-7.94,6.92-9.6,11.93a14.17,14.17,0,0,0,1.79,12.3,10.16,10.16,0,0,0,11.81,4,57.92,57.92,0,0,0,8-3.72c2.63-1.33,5.24-2.68,7.82-4.08,10.29-5.55,20.21-12,28.32-20.45,15.38-16.09,24.94-38.69,45.33-49.53a42.65,42.65,0,0,1,7.36-3.06c1.84-.57,1.05-3.47-.8-2.89-19.27,6-30.92,23.55-42.27,39-6.16,8.39-12.76,16.38-21.06,22.76s-17.39,11.22-26.6,15.88c-3.79,1.92-8.75,5.35-13,2.79-3-1.83-4.48-5.68-4.39-9.08.1-4.33,3-8.13,6-10.95a64.86,64.86,0,0,1,12.47-8.52,88.28,88.28,0,0,1,14.8-6.77,24.11,24.11,0,0,1,7.65-1.49c2,0,4.92.39,6.36,2,1.72,1.95-.93,5-2.15,6.5a48.25,48.25,0,0,1-5.43,5.64,63.3,63.3,0,0,1-12.26,9.1,14.14,14.14,0,0,1-7.14,1.9c-2.13-.1-4.95-1-5.17-3.47-.2-2.3,1.33-4.55,2.64-6.29a28.06,28.06,0,0,1,10.64-8.51,25.91,25.91,0,0,1,3.07-1.18,6.56,6.56,0,0,1,3.36-.56c2.09.55.85,3.66,0,4.76a10.22,10.22,0,0,1-4.45,3,32.54,32.54,0,0,1-5.73,1.54c-1.9.37-1.1,3.26.79,2.9Z" transform="translate(-47.94 -31.15)"/><path d="M293.25,211.16a51.9,51.9,0,0,0-2.32,10.52,1.51,1.51,0,0,0,2.56,1.06c1.78-2.18,2.81-4.72,4.11-7.19,1.17-2.22,2.73-4.46,5.28-5.12L301,208.59a51.36,51.36,0,0,0-1.77,7.5c-.19,2,.43,3.78,2.37,4.52a1.51,1.51,0,0,0,1.7-.69c2.31-4.75,4.77-9.85,9.34-12.82l-2.25-1.29a14.07,14.07,0,0,1-1.79,5.82c-.71,1.26.75,2.89,2.05,2.05a29.81,29.81,0,0,0,7.93-8.06c.55-.77,1.09-1.56,1.62-2.34a13.31,13.31,0,0,1,1.53-2.25c.09-.09.44-.31.46-.35-.59-.89-.88-1-.88-.21l-.14.7-.66,3.5c-.36,1.89,2.53,2.69,2.89.8.27-1.4.55-2.8.8-4.2.19-1.06.37-2.24-.55-3-1.78-1.55-3.93.39-4.92,1.85-2.71,4-5.41,8.32-9.59,11l2.05,2.06a17.73,17.73,0,0,0,2.2-7.34,1.52,1.52,0,0,0-2.26-1.3c-5.05,3.28-7.86,8.63-10.43,13.89l1.7-.69c-.67-.25.05-2.62.14-3l1.35-5.34a1.52,1.52,0,0,0-1.85-1.84,11,11,0,0,0-6.3,5.14c-1.6,2.56-2.48,5.57-4.41,7.94l2.56,1.06a49.06,49.06,0,0,1,2.21-9.72c.61-1.84-2.29-2.62-2.89-.8Z" transform="translate(-47.94 -31.15)"/></svg>