<svg id="Layer_2" data-name="Layer 2" xmlns="http://www.w3.org/2000/svg" viewBox="0 0 289.49 332"><path d="M182.89,48.28q25.31,12.11,51.49,22.26,13.14,5.08,26.47,9.65,6.51,2.24,13.07,4.34a38.84,38.84,0,0,1,9.76,4.23c2.44,1.62,4.94,4,4.83,7.21-.13,3.61-3.33,5.92-6.18,7.54-4,2.29-8.31,4.19-12.47,6.24L257,116.13l-26.36,13.05-12.89,6.38c-3.2,1.59-6.57,3.71-6,7.8.47,3.45,2.94,6.75,5.41,9.08a27.86,27.86,0,0,0,9,5.53c8.36,3.24,17.69,2.65,26.48,2.48l29.23-.56c4.69-.09,9.39-.23,14.08-.26,4.43,0,9.17.13,13.13,2.33,3.11,1.74,5.83,4.75,6,8.46.15,4.16-2.66,7.91-5.29,10.86-5,5.6-11.33,9.7-17.59,13.71s-13,8-18.05,13.47c-6.24,6.75,4.73,11.58,10.07,13,3.35.89,6.78,1.45,10.07,2.56,2.16.72,9.85,4.08,5.63,6.81a33.23,33.23,0,0,1-4.41,2,53.65,53.65,0,0,0-5.89,3.14,44.13,44.13,0,0,0-9.4,7.24c-2.64,2.86-1.6,6.12,1.42,8.13a35.29,35.29,0,0,0,5.53,2.6l6.42,2.79c2.48,1.08,8.76,2.81,8.8,6.32,0,1.68-1.62,2.81-2.9,3.59-2.06,1.26-4.26,2.32-6.39,3.46l-12.59,6.76a1.5,1.5,0,0,0-.31,2.35l11.71,9.53-.23-1.82c-3.36,7.6-11.64,10.94-18.75,14.1-8.64,3.84-17,8.17-25.32,12.71-16.75,9.16-33,19.16-50.17,27.62-17.61,8.69-35.91,15.13-55.4,17.94-10.54,1.52-21.23,2.38-31.86,3-3.94.22-8.34.33-11.91-1.59-3.83-2.07-5.3-6.22-4.81-10.39.53-4.63,3.37-8.5,6.51-11.77,3.61-3.76,7.61-7.17,11.44-10.69L136,305.21l6-5.55a1.51,1.51,0,0,0-.66-2.51C131,295.44,121.14,299,111,300.41c-7.1,1-15.68.4-21.41-4.39-7.53-6.28-5.64-16.9-.75-24.19a65.32,65.32,0,0,1,9.42-10.52L110,250l5.82-5.59a46.82,46.82,0,0,0,5.23-5.31,8.22,8.22,0,0,0,.27-9.86c-2.16-3.15-5.65-5.28-9.07-6.82-4.18-1.87-8.49-3.41-12.6-5.46-8.42-4.17-16.27-9.89-20.48-18.53-3.78-7.76-3.4-16.76,2-23.65,4.92-6.28,12.73-10.19,20.58-11.12,10.41-1.23,20.76,1.7,30.36,5.47,4.49,1.76,9.13,3.61,13.06,6.47a20.19,20.19,0,0,1,7.54,10.78c2.59,8.87-.15,18-4.88,25.65A53.91,53.91,0,0,1,139,223.29c-1.46,1.34-3.54,2.57-5.51,1.54-2.31-1.22-.56-4,.45-5.51,4.61-7,13.61-11.08,21.68-7.77a14.56,14.56,0,0,1,8.41,8.61c1.61,4.83.82,10.2.09,15.12-1.43,9.6-3.87,19-4.78,28.71-.85,9-.15,18.61,4.5,26.62a21,21,0,0,0,8.58,8.45,14.57,14.57,0,0,0,12.17.07,48.76,48.76,0,0,0,20.13-14.79,30.09,30.09,0,0,0,6-23.59c-1.5-9-6.62-17.05-12.27-24-4.76-5.87-11.16-14.05-19.43-14.46a7.73,7.73,0,0,0-7.82,5.25c-1,3.26.37,6.85,2.54,9.32,5.26,6,14.41,4.31,19.95-.3,6.9-5.75,7.94-15.51,5.62-23.73-2.65-9.35-9.34-16.79-15.57-24l-21.93-25.25c-6.61-7.61-13.55-15.07-19.25-23.41-5.28-7.74-9.41-16.45-10.1-25.91-.62-8.5,1.53-17.58,8-23.52,5.38-5,13.45-7.69,20.64-5.58a11.83,11.83,0,0,1,5,2.55c1.71,1.82-.72,4.19-2.17,5.3a47.08,47.08,0,0,1-12.77,6.55,103.1,103.1,0,0,1-28.56,5.58c-8.65.48-19.27-1.61-23-10.58-3.52-8.48,3.76-15.81,10.33-20a95.51,95.51,0,0,1,26.35-11.08,107.33,107.33,0,0,1,29-3.66c5.05.05,10,.66,15,1.13a32.43,32.43,0,0,0,14.46-1.65,71.69,71.69,0,0,0,12.57-6.22c3.23-2,6.32-4.92,6.17-9-.13-3.83-2.86-7.31-6.21-9-4.32-2.17-9.31-1.81-14-1.37-3.83.36-8.29.85-11,3.93-2.34,2.68-2.91,6.71-.46,9.49,1.27,1.45,3.39-.67,2.12-2.12s-.69-3.83.46-5.25c1.39-1.7,3.77-2.33,5.83-2.68,4.65-.8,10.52-1.51,15,.36,3.73,1.56,6.91,6.13,4.21,9.95a14.35,14.35,0,0,1-4.88,3.82c-2,1.15-4.11,2.25-6.22,3.28a31.24,31.24,0,0,1-15,3.67c-5.1-.17-10.14-1.08-15.25-1.27a110.32,110.32,0,0,0-56.52,13.21c-6.82,3.71-14.45,9.4-15.72,17.63s4.58,15.25,11.77,18.31c9.12,3.88,19.89,1.91,29.31.24s18.78-4.36,26.83-9.57c3-2,7.21-5.38,5.54-9.48-1.31-3.23-6.17-4.83-9.31-5.41-7.38-1.37-15,1.19-20.71,5.92-6.49,5.38-9.58,13.74-9.92,22-.83,19.86,12.7,35.68,24.92,49.76l21.93,25.25c6.7,7.71,14.49,15.33,18.71,24.77,3.65,8.16,4,19.31-3.81,25.21-3.14,2.39-7.34,3.67-11.23,2.57-3.26-.92-6.22-4.21-6-7.74.21-4.25,4.69-4.85,7.91-3.68,4.13,1.5,7.26,4.71,10.16,7.87,6.34,6.91,12.38,14.81,15,23.94a27.44,27.44,0,0,1-4.74,25,41.21,41.21,0,0,1-9.38,8.59c-3.61,2.45-7.79,5-12.08,5.95-9.71,2.24-15.77-8.79-17.65-16.59-2.31-9.54-.68-19.58,1.08-29.07.91-4.87,1.91-9.72,2.67-14.62.74-4.75,1.47-9.65.76-14.44-1.26-8.47-8.47-14.51-16.9-15.12s-16.45,4.75-20.28,11.93c-.94,1.76-1.59,3.85-.72,5.77a5.59,5.59,0,0,0,3.93,3c4.37.95,7.64-2.63,10.19-5.63,6-7,11.28-15.21,12.55-24.54,1.12-8.32-1.07-17.34-7.51-23.06-3.51-3.12-7.78-5.13-12.08-6.94a115,115,0,0,0-14.76-5.24c-9.2-2.48-19.31-3.38-28.43-.08-7.24,2.63-14,7.63-17.52,14.62-3.92,7.78-3,16.71,1.18,24.2,4.49,8.16,12.14,13.84,20.32,18,4.27,2.16,8.75,3.76,13.11,5.71,3.25,1.46,7.36,3.65,8.78,7.14,1.82,4.48-3.77,8.17-6.52,10.81l-12.11,11.62c-6.79,6.52-14.65,13.05-18,22.15C80,284.84,81.58,294,88.76,299.14c6,4.37,14.29,5.19,21.49,4.37,10.06-1.16,20.05-5.16,30.29-3.47l-.66-2.5-25.83,23.74c-4.21,3.87-8.44,7.74-12.64,11.63-3.6,3.32-7.26,6.9-9.35,11.4a16.77,16.77,0,0,0-1.1,12,12.49,12.49,0,0,0,8.21,8c4.16,1.39,8.71,1.12,13,.82,5.57-.4,11.14-.8,16.7-1.32a201.12,201.12,0,0,0,32.64-5.37,183.23,183.23,0,0,0,27.53-9.89c18.29-8.12,35.45-18.49,52.87-28.27,8.73-4.91,17.54-9.69,26.6-14,7.59-3.6,16.57-6.36,22.36-12.78a19.45,19.45,0,0,0,3.32-5.08,1.54,1.54,0,0,0-.24-1.82l-11.7-9.53-.31,2.36,13.17-7.06c3.21-1.72,7.9-3.37,9.62-6.87,1.59-3.23-.38-6.29-3-8.14a28.7,28.7,0,0,0-4.92-2.48L290.09,252c-2-.87-4.07-1.64-6-2.65-1.65-.88-3.41-2.21-1.82-4,2.74-3.11,6.66-5.59,10.23-7.64A52.76,52.76,0,0,1,298,235a14.34,14.34,0,0,0,4.69-2.58c2.87-2.86.89-6.56-1.91-8.53-5.84-4.11-13.34-4-19.77-6.6a15.36,15.36,0,0,1-4.38-2.62c-.78-.69-1.67-1.48-1.41-2.62.22-1,1.39-1.86,2.08-2.52a70.74,70.74,0,0,1,9.15-7.23c6.22-4.25,12.77-8,18.69-12.64,5.62-4.44,12.71-11,12.89-18.69.2-8.09-7.76-12.92-14.85-13.93-4.47-.64-9-.38-13.52-.29l-14.94.28c-9.88.19-19.75.5-29.63.55-8.38.05-17.37-.62-24.27-5.91a19.47,19.47,0,0,1-3.89-4c-1.08-1.49-2.72-4-2.22-5.9.45-1.73,2.5-2.63,3.94-3.36,2.34-1.17,4.69-2.32,7-3.48L252,121.91l27-13.34c5.74-2.84,13.86-6.72,12.35-14.55-1.26-6.46-8.86-9.84-14.42-11.68-9-3-17.92-5.89-26.79-9.1q-27-9.78-53.25-21.72-6.27-2.85-12.48-5.83c-1.73-.83-3.26,1.75-1.51,2.59Z" transform="translate(-57.27 -33.39)"/><path d="M217.24,96.7l2.14-1.24-1.81-.24c5.32,6,13.07,9,19,14.28a61.61,61.61,0,0,1,13.74,18.28,94.58,94.58,0,0,1,7.65,21.8,60.26,60.26,0,0,1,1.79,14,42.2,42.2,0,0,1-2.24,12.49c-2.91,9-7.67,17.29-10.18,26.43a1.5,1.5,0,0,0,2.89.8c2.29-8.32,6.43-15.95,9.36-24a51.73,51.73,0,0,0,3-12.43,50.49,50.49,0,0,0-.92-14.19c-2.91-15.58-9.14-31.44-20.44-42.88a59.43,59.43,0,0,0-10.34-8.21c-4-2.53-8-4.92-11.2-8.47a1.53,1.53,0,0,0-1.82-.23l-2.14,1.24a1.5,1.5,0,0,0,1.51,2.59Z" transform="translate(-57.27 -33.39)"/><path d="M215.06,111.83a73,73,0,0,1,12.62,8.85,29,29,0,0,1,8.26,13.25,73.13,73.13,0,0,1,2.46,16,66.4,66.4,0,0,1-.58,15.43,37.09,37.09,0,0,1-6.32,15.72c-1.13,1.57,1.47,3.07,2.59,1.52,6.45-8.93,7.91-20.3,7.4-31-.52-11.07-2.06-22.92-10-31.3-4.27-4.52-9.63-7.85-14.94-11a1.5,1.5,0,0,0-1.51,2.59Z" transform="translate(-57.27 -33.39)"/><path d="M224.69,149.52q40.26-11.85,80.09-25.07,11.24-3.74,22.45-7.58c1.81-.62,1-3.52-.8-2.89q-39.69,13.6-79.83,25.84-11.34,3.47-22.7,6.8c-1.85.55-1.06,3.44.79,2.9Z" transform="translate(-57.27 -33.39)"/><path d="M308.66,108.46l-.65-1-2.59,1.51c2.84,3.77,7.3,4.86,11.77,5.42,5.89.75,11.82,1.25,17.72,1.87l-.4-2.95A56.36,56.36,0,0,0,315,126a1.5,1.5,0,0,0,2.13,2.12,52.78,52.78,0,0,1,18.22-12,1.5,1.5,0,0,0-.4-2.94c-5.43-.57-10.87-1.12-16.3-1.7-3.65-.39-8.22-.94-10.6-4.1-1.13-1.5-3.64-.17-2.59,1.51l.65,1c1,1.64,3.61.14,2.59-1.51Z" transform="translate(-57.27 -33.39)"/><path d="M229,229.74a36.68,36.68,0,0,0,7.25,45.54,1.52,1.52,0,0,0,2.56-1.06c0-3.75-1.7-7.22-2.51-10.82a32.43,32.43,0,0,1-.68-10.71,24.27,24.27,0,0,1,1.14-5,18.25,18.25,0,0,1,.82-2l.56-.95c-.5-.32-.65-.31-.44,0s.13.5.18.76c.71,3.71-.37,7.52,0,11.25.34,3.12,1.5,6.15,4.19,8,2.28,1.54,6.5,2.91,8.71.62,2-2,1.14-5.29.68-7.71a20.28,20.28,0,0,1,.68-10,21,21,0,0,1,1.12-2.74c.19-.37.39-.74.6-1.1s.79-.85.42-1c.47.22.7,1.75.84,2.17.33,1,.69,1.9,1.09,2.84a45.45,45.45,0,0,0,6.1,10.34c1.18,1.52,3.29-.62,2.12-2.13a40.82,40.82,0,0,1-5.74-10c-.87-2.2-2-7.88-5.62-5.74-1.46.86-2.28,2.8-2.93,4.28a22.55,22.55,0,0,0-1.6,5.16,23.84,23.84,0,0,0-.38,5.4c.09,1.73.51,3.37.75,5.08.12.86.42,2.63-.47,3.2-.66.42-1.89,0-2.57-.22a7.2,7.2,0,0,1-2.46-1.19c-2.74-2.14-2.75-6.15-2.58-9.29a44.24,44.24,0,0,0,.15-6.2c-.14-1.51-.3-3.57-1.75-4.46-3.51-2.16-5.38,4.45-5.95,6.64a31.69,31.69,0,0,0-.46,12.46,41.34,41.34,0,0,0,1.44,6.3c.68,2.2,1.52,4.36,1.51,6.7l2.56-1.07a33.62,33.62,0,0,1-6.78-41.89,1.5,1.5,0,0,0-2.59-1.52Z" transform="translate(-57.27 -33.39)"/><path d="M309.34,246.79c.69-2.34,1.43-4.67,2.24-7,.21-.61.4-1.24.66-1.83a2.16,2.16,0,0,1,.24-.48c-.26,0-.21.08.16.21a7.89,7.89,0,0,1,1.5,1.75,16.24,16.24,0,0,1,1.48,5.08q.66,3.63,1.3,7.24c.24,1.39,2.07,1.32,2.74.36A45.23,45.23,0,0,0,326.8,218L325,219.87c5.48,1.93,6.14,8.9,6.49,13.81.42,5.88.21,11.84-2,17.39-.66,1.67,1.84,2.47,2.74,1.16,6.64-9.62,13.43-19.87,14.18-31.88h-3a225.81,225.81,0,0,1-1,37.5c-.21,1.92,2.79,1.9,3,0a225.81,225.81,0,0,0,1-37.5,1.5,1.5,0,0,0-3,0c-.72,11.41-7.47,21.24-13.77,30.36l2.74,1.16c2.5-6.34,2.55-13.28,1.93-20-.55-6-2.23-12.7-8.54-14.92-1.17-.41-2.05.81-1.85,1.84a42.2,42.2,0,0,1-6.83,31.82l2.74.36c-.53-3-1-6-1.64-9a11.37,11.37,0,0,0-3.16-6.22c-2-1.71-4.4-1.62-5.48.95a87.36,87.36,0,0,0-3.08,9.26,1.5,1.5,0,0,0,2.89.8Z" transform="translate(-57.27 -33.39)"/><path d="M89.57,53.82C70.44,68.51,58.68,91.68,57.38,115.7a79.06,79.06,0,0,0,1.48,20c.31,1.57,2.42,1.27,2.89,0a151.19,151.19,0,0,1,9-20,85,85,0,0,1,5.07-8.52c1.71-2.41,3.86-4.6,6.79-5.37l-1.7-2.21c-5,11.53-10.09,23.8-7.88,36.62a1.5,1.5,0,0,0,2.5.66q6-7,12.15-13.8c1.67-1.86,3.31-4.18,5.62-5.3.56-.27,1.5-.67,2.1-.27.92.62.58,2.54.46,3.44-.64,4.8-3.25,9.1-3.85,13.92-.53,4.17,1.4,10.93,6.88,9.89,3-.58,5.6-3.2,8-5l8.61-6.39c1.53-1.14,0-3.75-1.52-2.59l-7.43,5.52-3.71,2.76a18.76,18.76,0,0,1-3.73,2.48c-2.71,1.12-4-2-4.16-4.21a17.4,17.4,0,0,1,1.23-6.83c.78-2.36,1.71-4.68,2.27-7.1.53-2.25,1.09-5.22-.25-7.29-1.2-1.84-3.49-2.1-5.42-1.37-2.31.87-4,2.61-5.57,4.4q-7,7.69-13.77,15.59l2.51.66c-2-11.9,2.94-23.62,7.58-34.3a1.52,1.52,0,0,0-1.69-2.2c-6.67,1.74-10.16,8.91-13.2,14.45a154.74,154.74,0,0,0-9.75,21.52h2.89C57.19,112.38,63.38,88.13,77.43,70A76.24,76.24,0,0,1,91.08,56.41a1.55,1.55,0,0,0,.54-2,1.51,1.51,0,0,0-2.05-.54Z" transform="translate(-57.27 -33.39)"/></svg>