<svg id="Layer_1" data-name="Layer 1" xmlns="http://www.w3.org/2000/svg" viewBox="0 0 295.96 337.33"><path d="M131.57,150.73q-1.23-39.4.74-78.81.56-11.25,1.39-22.49l-2.56,1.06a668.43,668.43,0,0,1,50.35,68.21q6.45,10,12.55,20.29l1.7-2.21-67.83-15.94.36,2.74A153.35,153.35,0,0,0,159.93,94.9l-2.36-1.82a525.62,525.62,0,0,0-29.11,57.71c-.55,1.29.64,2.87,2.06,2.05l28.14-16.29,13.71-7.94a104.66,104.66,0,0,0,12-7.73C191.8,115.09,196.58,107.21,201,99q7.73-14.27,15.4-28.54l17.37-32.21h-2.59a585.49,585.49,0,0,1,30,62.34q3.74,9.07,7.15,18.27l1.84-1.84a210.25,210.25,0,0,1-66.11-29.63V90A186.28,186.28,0,0,1,247.22,71.4l-1.69-2.2-39.2,58h2.59A84.4,84.4,0,0,1,197,105.33l-1.85,1.84,69.95,14.23c2.55.52,5.17.9,7.67,1.62s4.29,2,3.52,4.79A74,74,0,0,1,273,135.9l-3.41,8.34L256.22,177l-15.3,37.39c-.68,1.65,1.85,2.49,2.74,1.16,3.17-4.74,8.55-7.22,13.43-9.8q8.28-4.4,16.33-9.17Q289.66,187,305,175.82q8.6-6.27,16.85-13l-2.57-1.06,2.88,44.43c.47,7.29,1,14.59,1.42,21.88.18,2.93.39,6-.56,8.83a8.51,8.51,0,0,1-5.73,5.34,28,28,0,0,1-7.94,1c-3.36.08-6.71.16-10.06.34q-10.17.54-20.26,1.89a256.9,256.9,0,0,0-77,22.92c-12.12,5.81-23.62,12.78-35.53,19a173.84,173.84,0,0,1-18.57,8.52c-2.08.79-6.94,3.37-7.93,0-.77-2.65.64-6,1.3-8.49q5.53-21.21,11.64-42.27t12.77-41.94q3.28-10.29,6.7-20.53c2-6.07,3.94-12.24,7-17.89a37.41,37.41,0,0,1,5.26-7.53l-2.51-.66c5.42,27.18,18.67,51.8,31.8,75.91,6.66,12.22,13.36,24.43,19.16,37.09A156.05,156.05,0,0,1,241,289.4c2,6.78,1.92,13.73-3.35,19-11.06,11-28.38,5.71-41.61,2.83l-48.1-10.49L99.84,290.22,94,288.94a18.09,18.09,0,0,1-5.21-1.59c-2.76-1.56-3.4-4.64-3.31-7.59a48.2,48.2,0,0,1,1.75-9.43q1.41-5.85,2.93-11.69A677,677,0,0,1,120,169.73c1.49-3.6,3-7.17,4.56-10.74l-2.36.31c10.12,12.77,26.16,18.22,39.68,26.4,6.65,4,12.93,8.91,17.07,15.61,1.94,3.14,4.38,7.62,8.49,8.09a6.28,6.28,0,0,0,5.23-2.3c2.09-2.19,4.08-4.48,6.12-6.72l27.15-29.77L223.4,170c5.29,28.74,16.72,55.79,28.65,82.31,6,13.27,12.1,26.47,17.72,39.89.7,1.67,1.38,3.34,2.06,5s1.77,3.64,2,5.5-1,2.76-2.46,3.57-3.22,1.66-4.77,2.59a85.65,85.65,0,0,0-15.83,12.7c-6,5.92-11.73,12.18-17.53,18.31l-18.63,19.69a1.5,1.5,0,0,0,2.12,2.13c7-6.72,18.36-4.42,26.92-2.95a250,250,0,0,1,33,8c6.21,1.95,12.34,4.16,18.38,6.58.94.38,1.87-.56,1.9-1.44.77-32.84,19.25-61.5,31.07-91.17a162.46,162.46,0,0,0,8.24-26.37c.4-1.88-2.49-2.69-2.89-.79-6.84,32.31-26.36,60-35.23,91.62A108,108,0,0,0,294,371.84l1.89-1.45a252.46,252.46,0,0,0-34.15-11q-8.87-2.17-17.88-3.7c-5-.84-10-1.69-15.08-1.48-5.21.21-10.3,1.63-14.14,5.3l2.12,2.13c11-11.66,21.92-23.47,33.12-35,5-5.14,10.29-10.14,16.33-14.08,2.67-1.73,5.81-2.89,8.32-4.84,3-2.32,2.59-5.42,1.32-8.62-11-27.63-24.68-54.09-35.41-81.83a268.51,268.51,0,0,1-14.15-48.17,1.5,1.5,0,0,0-2.5-.66l-23.14,25.38-5.79,6.34-2.67,2.93a14.44,14.44,0,0,1-2.88,2.91c-3.61,2.13-6.79-4.73-8.27-7-8.44-13-23.5-19-36.54-26.19-7.52-4.15-14.81-8.89-20.21-15.69a1.5,1.5,0,0,0-2.35.3,682,682,0,0,0-32.39,91.79q-3.22,11.78-6,23.66c-1.24,5.31-2.32,12.43,2.62,16.26,2.87,2.22,6.86,2.61,10.3,3.36l12.35,2.69,25.35,5.52,50,10.91c8.14,1.77,16.27,3.77,24.47,5.22,7.3,1.29,15.12,1.89,22.18-.8,5.59-2.13,10.7-6,13.09-11.66,3-7,.63-14.51-1.92-21.21-5.08-13.38-11.51-26.19-18.24-38.79-13.54-25.34-28.69-50.35-36.33-78.28Q186,161,185,155.82a1.51,1.51,0,0,0-2.51-.66c-4.3,4.71-7.13,10.39-9.4,16.31-2.57,6.69-4.68,13.57-6.91,20.37q-7.05,21.63-13.51,43.43t-12.31,43.78c-1,3.69-2,7.38-2.91,11.08-.61,2.4-1.12,5.18,0,7.53,1.21,2.62,4,3.31,6.61,2.74a55.47,55.47,0,0,0,9.51-3.52c12.93-5.47,25-12.7,37.3-19.36a260.8,260.8,0,0,1,38.71-17.19,256.13,256.13,0,0,1,41.15-10.55q10.44-1.77,21-2.64c6.77-.57,13.54-.52,20.31-1,5.32-.35,11-1.87,13.38-7.16a19.51,19.51,0,0,0,1.29-8.83c-.13-3.57-.44-7.14-.67-10.7l-3-46.42-.73-11.27a1.52,1.52,0,0,0-2.56-1.06A398.05,398.05,0,0,1,255.85,203c-5.48,2.91-11.23,5.71-14.78,11l2.74,1.16L272,146.28c2.32-5.67,5-11.31,7-17.12.73-2.18.75-4.55-.8-6.38a10,10,0,0,0-5.32-2.83c-5.74-1.42-11.65-2.39-17.45-3.57l-18.3-3.72-41.19-8.38c-1-.21-2.27.69-1.85,1.84a87.23,87.23,0,0,0,12.26,22.56,1.52,1.52,0,0,0,2.59,0l39.2-58a1.51,1.51,0,0,0-1.69-2.2,190,190,0,0,0-43.86,18.91,1.52,1.52,0,0,0,0,2.59,212.63,212.63,0,0,0,66.83,29.93c1,.26,2.26-.73,1.85-1.85a592.57,592.57,0,0,0-28.08-63.74q-4.54-8.88-9.4-17.58a1.51,1.51,0,0,0-2.59,0L200.86,93c-4.5,8.34-8.78,17.16-16,23.57a71.36,71.36,0,0,1-11.54,8c-4.42,2.62-8.89,5.16-13.34,7.74l-31,17.95,2.05,2.05a525.62,525.62,0,0,1,29.11-57.71c.83-1.42-1.24-3.16-2.36-1.81a150.27,150.27,0,0,1-31,28.21,1.52,1.52,0,0,0,.35,2.74l67.83,16a1.52,1.52,0,0,0,1.69-2.21,673.72,673.72,0,0,0-48.14-70.33q-7.44-9.53-15.23-18.77c-.91-1.08-2.48-.11-2.56,1.06q-2.88,39.32-2.57,78.78.09,11.26.44,22.52c.07,1.92,3.07,1.93,3,0Z" transform="translate(-40.39 -36.04)"/><path d="M182.91,184.61c2.23,0,2.74-3.48.52-4a1.51,1.51,0,0,0-1.69,2.2s.2.34.1.18,0,.19,0,0v.19c0,.28,0-.09,0,.07s-.1.28,0,.13-.09.14-.11.17c.1-.14.08,0,0,0-.34.13.21-.12-.12.07l2.2.9a5.82,5.82,0,0,1-.49-2.66,4.29,4.29,0,0,1,.18-1.14,5,5,0,0,1,.49-1.25l-2.35.31c.11.13.12.14,0,0l.16.24a3.53,3.53,0,0,1,.28.5c-.11-.25,0,.17.06.19a5.09,5.09,0,0,1,.14.56q0,.27,0,0c0,.1,0,.2,0,.29s0,.29,0,.44a2.83,2.83,0,0,1,0,.29c0-.16,0-.15,0,0s-.06.29-.1.42a2.31,2.31,0,0,1-.1.28l0,0-.28.5c-.2.32.14-.11-.12.15l-.19.19c.14-.1.15-.11,0,0l-.22.12c.16-.07.16-.08,0,0s.23,0-.07,0c.21,0,.24,0,.07,0a.76.76,0,0,1,.32.17.66.66,0,0,1,.22.7c.06-.17.07-.21,0-.14.14-.19.34-.6.42-.69a3.8,3.8,0,0,1,.61-.54c.16-.08.17-.09,0,0l.25-.08-.16,0c.18,0,.17,0,0,0s-.18-.09,0,0a.29.29,0,0,1-.15-.14l0,.05c0,.16,0,.2,0,.1s0,.34,0,.41c0-.25-.06.29-.08.36s-.15.44-.06.22a4,4,0,0,1-.29.54,2.73,2.73,0,0,1-.55.64c-.14.12-.16.14,0,.06l-.26.17s-.53.28-.33.2l1.85,1.05a11.38,11.38,0,0,1-.29-8.16c0-.1,0-.09,0,0l.07-.13c.08-.13.15-.27.24-.4-.14.19.13-.12.16-.15s.14-.13,0,0l.12-.07c-.11,0-.41,0-.16.06l-.35-.08c-.07-.08-.08-.08,0,0s0,.09,0,0a4.12,4.12,0,0,1,.13.47s.09.46.06.27a4.21,4.21,0,0,1,0,.5c0,.17,0,.34,0,.51s0,0,0,.27a4.29,4.29,0,0,1-.68,1.66,1.5,1.5,0,0,0,2.59,1.51,7.1,7.1,0,0,0,.89-5.68,3.06,3.06,0,0,0-2.08-2.35,2.94,2.94,0,0,0-2.8,1c-1.34,1.48-1.68,3.73-1.77,5.66a14.15,14.15,0,0,0,1,5.93c.27.67,1,1.38,1.84,1a6,6,0,0,0,3.81-5,3.2,3.2,0,0,0-1.37-3.09,3,3,0,0,0-3.14.16,5.62,5.62,0,0,0-2.06,2.29,2.51,2.51,0,0,0,.78,3.47,3.15,3.15,0,0,0,3-.26,5,5,0,0,0,1.88-2.5,6.22,6.22,0,0,0-1.17-6.36,1.51,1.51,0,0,0-2.36.31,8.69,8.69,0,0,0-.48,7.35,1.52,1.52,0,0,0,2.2.9,3.59,3.59,0,0,0,1.28-4.92l-1.7,2.2a1,1,0,0,1,.28-1.88,1.5,1.5,0,1,0,0,3Z" transform="translate(-40.39 -36.04)"/><path d="M238.58,166.44l.12-3.29a13.21,13.21,0,0,1,.19-2.72,1.38,1.38,0,0,1,.16-.39c.16-.3.09-.14,0-.07.12-.17.13-.11,0-.05a1.23,1.23,0,0,1,.25-.14s-.17.07,0,0-.13-.08,0,0l-.16-.07c-.18,0,.08-.21,0,0l-.08-.08s.09.31.11.43c0-.23,0,.1,0,.12l0,.41c0,.27,0,.55,0,.82a8.56,8.56,0,0,1-.13,1.33,9.74,9.74,0,0,1-.36,1.44c.05-.14,0,.1,0,.1l-.08.13.24-.24.32,0a.59.59,0,0,1,.68.17c.15,0,0,.24,0,0,0,0,.09.2,0,0s-.09-.33-.05-.14,0-.11,0-.13,0-.31,0-.47a6.35,6.35,0,0,1,.46-2.51,4.44,4.44,0,0,1,.22-.44c.15-.23.11,0,0,0h-.24s.29.07,0,0c0,0,.27.12.06,0,.05,0,.2.12.07,0,.05,0,.13.2.05,0a1.65,1.65,0,0,1,.11.36s0,.33,0,.45a7.87,7.87,0,0,1-.23,1.28,5.25,5.25,0,0,1-.82,2.2c.07-.08-.14.13-.15.14-.16.18.16-.09,0,.05,0,0-.45.26-.24.17l-.28.09s-.25,0-.09,0-.12,0-.16,0h0c.11,0,.08,0-.08,0,.06.05.15.16,0,0,0,0,.15.1,0,0s.07.14-.05,0l-.11-.19c.09.18-.06-.29-.08-.36s0-.29,0-.07l0-.32a12.53,12.53,0,0,1,.12-2.49,3.2,3.2,0,0,1,.36-1.08l.12-.19c.14-.21-.12.11.06-.06s.11-.11.16-.16c.31-.3-.08,0,.13-.1l.26-.15c.22-.1-.17,0,.07,0l.21,0c-.26,0,0,0,0,0-.31-.1.24.09.14,0s.17.15.05,0,.19.2.19.2c-.13-.16.12.22.15.28s.14.32.09.18,0,.13,0,.12a8.32,8.32,0,0,1,.31,1.31c0-.18,0,.1,0,.11l0,.43c0,.26,0,.51,0,.77a5.29,5.29,0,0,1-.18,1.13,6.85,6.85,0,0,1-1.13,2.53,3.63,3.63,0,0,1-.68.76c-.2.12-.08.08.08,0a.7.7,0,1,0-.07,0l-.13-.08c.07.07.07.07,0,0a1,1,0,0,1-.34-.71,6.6,6.6,0,0,1,.08-1.72,1.5,1.5,0,0,0-3,0c-.18,1.58-.13,3.29,1.08,4.49a3.15,3.15,0,0,0,4.4.14,9.68,9.68,0,0,0,2.9-7.52,7.55,7.55,0,0,0-1.15-4,3.51,3.51,0,0,0-3.95-1.41c-3.05.94-3.59,4.52-3.4,7.27a4,4,0,0,0,2,3.53,3.87,3.87,0,0,0,4.15-.72,6.7,6.7,0,0,0,1.88-3.73c.35-1.52.7-3.28-.29-4.64a3,3,0,0,0-4.3-.75c-1.16,1-1.56,2.78-1.73,4.22s-.12,3.16,1.11,4.09a2.13,2.13,0,0,0,2.38.14,3.42,3.42,0,0,0,1.37-2.13,11.63,11.63,0,0,0,.34-5.37,2.9,2.9,0,0,0-3.82-2.35c-1.85.65-2.47,2.43-2.59,4.23s-.13,3.49-.19,5.23a1.5,1.5,0,0,0,3,0Z" transform="translate(-40.39 -36.04)"/><path d="M42.08,233.07q24.78.78,49.56,1.52c1.93.06,1.93-2.94,0-3q-24.78-.75-49.56-1.52c-1.93-.06-1.93,2.94,0,3Z" transform="translate(-40.39 -36.04)"/><path d="M43,299.08c5.16-4.12,11.55-6.22,17.68-8.4s12.34-4.56,17.45-8.79c1.49-1.23-.65-3.34-2.12-2.12C71,284,64.59,286.13,58.46,288.3S46.09,292.82,40.91,297c-1.51,1.2.62,3.31,2.12,2.12Z" transform="translate(-40.39 -36.04)"/><path d="M94.71,348q8.82-21,19-41.42c.86-1.72-1.73-3.24-2.59-1.51q-10.29,20.76-19.25,42.13A1.52,1.52,0,0,0,92.87,349,1.54,1.54,0,0,0,94.71,348Z" transform="translate(-40.39 -36.04)"/></svg>