<svg id="Layer_2" data-name="Layer 2" xmlns="http://www.w3.org/2000/svg" viewBox="0 0 288.62 334.43"><path d="M88.11,122.81c-1.18,3.09,3.15,5.07,5.44,3.43,3-2.16,1.51-6.65.35-9.38-2.48-5.85-7.16-10.35-11.9-14.4S71.94,94.52,68,89.51a23.08,23.08,0,0,1-4.15-7.83c-.5-1.76-1-4,.22-5.61,1-1.4,2.87-1.54,4.48-1.32,4.59.62,8.81,3.68,12.79,5.83L96.9,89a1.52,1.52,0,0,0,2.21-1.69q-1.38-9.43-1.93-19c-.18-3-.29-6-.34-9.08a14,14,0,0,1,1-6.36c.84-1.77,2.42-3,4.1-1.25s2.75,4.85,3.9,7.11l8.43,16.71c.63,1.26,2.32.74,2.74-.36L127,49c1.08-2.81,2.36-7.74,5.87-8.4,2.68-.51,4.36,2.06,5.24,4.21,1.14,2.76,1.22,5.56,1.54,8.47a20.31,20.31,0,0,0,2.57,8.33c1.31,2.16,3.35,4,6,4.08,3.6.18,6.13-2.65,8.18-5.22,5-6.24,8.71-13.89,15.38-18.62,5.67-4,12.89-4.95,18.51-.37,4.8,3.91,7.46,10.06,9.33,15.8a60.32,60.32,0,0,1,2.57,10c.66,4.59-1.41,7.7-4.69,10.66-6.29,5.66-13.53,10.19-20.82,14.44-7.77,4.54-15.63,8.92-23.45,13.36q-24.42,13.88-48.85,27.75c-6.27,3.57-12.74,7.33-17.23,13.13a20.65,20.65,0,0,0-4.16,17c1.26,6,5.68,10.54,11.85,11.24,3.71.42,7.43-.53,11-1.56s7.74-2.79,11.53-2.39c2.27.25,2.87,1.83,3.26,3.85.43,2.2.77,4.42,1.15,6.63l2.39,13.84,2.33,13.52c.72,4.18,1.5,8.08-1.58,11.52-2.63,2.95-6.21,5.08-9.4,7.38-3.49,2.52-7.14,4.91-10.49,7.61-2.32,1.87-3.54,4.85-1.62,7.48,1.71,2.33,4.84,3.41,7.57,3.9,4.48.79,9,1.44,13.47,2.16l-.9-2.2-6.61,10.47-1.56,2.48a9.16,9.16,0,0,0-1.37,2.28c-.29,1.14.61,2.39,1.44,3.06,1.93,1.55,4.65,1.25,6.94,1.7,2.87.56,4.57,3,5.29,5.7,1,3.61-.11,7.39-.93,10.92a40.71,40.71,0,0,0-1.22,9.76,36.74,36.74,0,0,0,5.07,18,35.79,35.79,0,0,0,31.57,17.26c14.62-.35,26.72-10.56,37.8-19,23.92-18.23,45.8-38.95,66.53-60.69q7.88-8.26,15.56-16.71c4.68-5.12,9.43-10.35,12.72-16.5,3.2-6,4.88-12.86,3.68-19.6a21,21,0,0,0-10.35-14.41c-11.79-6.78-25.62-2.9-36.47,3.8a109.7,109.7,0,0,0-17.25,13.41c-4.76,4.48-10.23,9.65-11.76,16.28-3.35,14.52,16.75,17.06,26,11.68a12.91,12.91,0,0,0,6.5-13.51c-.9-5-5.57-8.89-10.73-7.19-4.49,1.48-8.13,6.57-5.23,11.07a19.45,19.45,0,0,0,3.16,3.44l4.53,4.27,9.06,8.55c9.83,9.28,21.56,18.88,25.67,32.29,3,9.69,0,22.82-9.8,27.59a12.45,12.45,0,0,1-7.88,1.2,4.74,4.74,0,0,1-3.64-6.62c2.36-6.66,11.29-6.58,17-8,23.39-5.73,42.18-25.71,48-48.85,6.46-25.6-2.12-53.59-20-72.62A92.82,92.82,0,0,0,273,136.29c-11.66-4.83-24.91-8-37.6-7.37-11.45.59-23.85,5.47-27.2,17.55a22.91,22.91,0,0,0,2.13,17.34,21.41,21.41,0,0,0,13.53,9.85c5.44,1.31,11.89.77,16.61-2.45a7,7,0,0,0,3-8,24.25,24.25,0,0,0-4.22-8.32A29.64,29.64,0,0,0,225,144.47c-5.54-1.84-11.5-1.62-17.26-2.11-5.4-.46-11.52-1.68-14.23-7-3-5.85-.14-13.06,3.22-18.08,7.29-10.91,19.5-17.42,31.68-21.38,14.2-4.62,29.18-6,43.63-9.67,10.67-2.68,29.66-7.73,27.71-22.36a9.79,9.79,0,1,0-18.8,4.68c1.16,2.85,3.57,4.88,6.06,6.57,2.9,2,6,3.7,9,5.46,6.14,3.55,12.37,7,18.05,11.27,10.75,8,17.76,19.22,21.93,31.85s5.79,25.78,7.22,38.88c3,27.56,5.36,56.29-1.84,83.43A98.21,98.21,0,0,1,323,282.76c-8.8,10.91-19.65,20-31,28.06a375.28,375.28,0,0,1-78.1,42.27,385.16,385.16,0,0,1-41.08,13.75,1.5,1.5,0,0,0,.8,2.89,387.63,387.63,0,0,0,78.62-31.06,382.86,382.86,0,0,0,36-21.62c10.88-7.38,21.42-15.42,30.53-24.94a102.47,102.47,0,0,0,21.18-32.41c4.83-12,7.31-24.74,8.38-37.56a250,250,0,0,0-.31-40c-1-12.81-2.24-25.69-4.31-38.38-1.94-12-4.94-24-10.85-34.7a59.88,59.88,0,0,0-11.06-14.5,90.54,90.54,0,0,0-16.06-11.7c-5.59-3.35-11.38-6.4-16.83-10-2.49-1.64-5.29-3.82-5.66-7A6.78,6.78,0,0,1,295,60.27c1.88,2,2.2,5.09,1.6,7.71-1.45,6.21-7.61,9.5-13.11,11.6-25.25,9.65-54.66,7.48-77.29,23.91-8.91,6.47-18.82,17.65-16.61,29.59,1,5.3,5,9.12,10,10.81,5.14,1.74,10.76,1.58,16.1,2,5.81.43,11.21,1.86,15.93,5.41a26.26,26.26,0,0,1,6,6.31c1.5,2.24,4,6,3.18,8.84s-5,4-7.44,4.51a19.37,19.37,0,0,1-8.37-.11,18.37,18.37,0,0,1-12.73-10,19.81,19.81,0,0,1,.15-16.76c2.56-5.13,7.39-8.55,12.74-10.31,11.17-3.68,23.91-1.7,35,1.29,24.39,6.58,46.09,22.66,56.95,45.78,10.5,22.35,10,49.23-4.09,69.91a65.26,65.26,0,0,1-25.69,22.17,68.79,68.79,0,0,1-16.74,5c-5.65,1.09-11.76,3.34-13.38,9.51-1.57,6,3.31,10.12,9,10a18,18,0,0,0,12.57-5.93c7.07-7.57,8.6-19.07,5.13-28.61-4.4-12.1-14.35-21-23.47-29.61-5.69-5.36-11.44-10.67-17.06-16.1-1.91-1.85-3.14-4-1.26-6.32a6.29,6.29,0,0,1,5.82-2.38c5.23,1,5.18,8.55,2.9,12.06-3.28,5.07-10.56,6.2-16.1,5.49-2.83-.36-5.95-1.35-7.82-3.64-2-2.45-1.87-5.63-.84-8.45,2.29-6.26,8.07-11.17,12.91-15.48,9.7-8.61,22.25-18.06,35.89-17.72a23.59,23.59,0,0,1,15.58,6c4.75,4.55,6.19,11.24,5.11,17.59-1.14,6.71-4.76,12.62-9,17.84-4.36,5.39-9.2,10.42-13.92,15.49-9.76,10.49-19.73,20.78-30,30.73S221.65,288,210.59,297q-8.42,6.91-17.19,13.41c-5.54,4.09-11.14,8.32-17.37,11.32-11.66,5.62-26,4.37-36-4.11-9.68-8.2-13.27-21.18-10.47-33.35,1.29-5.65,2.75-11.91-1-17a9,9,0,0,0-6-3.71c-1.49-.23-5.21.07-5.72-1.77l-.15,1.16,9.39-14.88a1.5,1.5,0,0,0-.9-2.2c-4.61-.74-9.28-1.34-13.86-2.24-1.93-.37-7.3-1.91-5.65-4.86.88-1.57,3.11-2.65,4.51-3.66l6-4.35c3.27-2.35,6.81-4.56,9.74-7.34a12.24,12.24,0,0,0,4.27-9.1,40.81,40.81,0,0,0-.87-6.41l-1.22-7.08c-1.56-9-2.89-18.16-4.69-27.16-.73-3.65-3.08-5.82-6.85-5.83s-7.5,1.33-11,2.37c-3.78,1.11-7.91,2.36-11.86,1.38a10.11,10.11,0,0,1-6.65-5.38c-2.87-5.62-1.46-12.51,2.15-17.41,4.6-6.25,11.82-10,18.42-13.75l48.85-27.75c7.94-4.51,15.95-8.93,23.8-13.6,7.18-4.27,14.55-8.89,20.52-14.79,2.69-2.65,4.58-5.81,4.55-9.68,0-3.64-1.19-7.37-2.22-10.83-1.76-5.92-4.17-11.91-8.25-16.64a17.36,17.36,0,0,0-16.16-6.2C171,36.94,165.31,43,160.93,49.08c-2.46,3.4-4.7,7-7.4,10.21-2,2.41-5.09,5-7.82,2-4.05-4.42-2.57-11.24-4.4-16.53-.87-2.51-2.28-5.2-4.72-6.49a6.74,6.74,0,0,0-7.48.93c-2.76,2.3-3.86,6.06-5.1,9.29l-4.93,12.9-4.94,12.89,2.74-.36-7.7-15.26c-1.23-2.43-2.34-5-3.74-7.32a6.57,6.57,0,0,0-4.51-3.53c-3.65-.55-5.79,3-6.59,6a23,23,0,0,0-.48,6.36q.09,4.21.34,8.43c.38,6.51,1.07,13,2,19.44l2.2-1.69L85.15,79.24c-3.86-2.09-7.69-4.5-11.75-6.18-2.81-1.16-6.25-2-9.18-.79-3.38,1.44-4.27,5.1-3.68,8.45,2.15,12.32,14.68,19.22,23,27.13a35.49,35.49,0,0,1,6.3,7.58,21.24,21.24,0,0,1,2.06,4.62,5.73,5.73,0,0,1,.34,2.92c-.11.39-.23.85-.69.91s-.56-.22-.54-.28c.69-1.8-2.21-2.58-2.89-.79Z" transform="translate(-60.37 -35.36)"/><path d="M130.73,179.74c9.57,3.69,19.5-.46,28.27-4.36l-2.21-1.69c-1.09,4.41-5.52,7.2-8.63,10.17a92.24,92.24,0,0,0-10,11.3c-1.16,1.54,1.44,3,2.59,1.51a87.3,87.3,0,0,1,10.47-11.61c3.31-3.07,7.28-5.95,8.43-10.58a1.52,1.52,0,0,0-2.21-1.69c-8.06,3.59-17.15,7.45-25.95,4.06-1.8-.7-2.58,2.2-.8,2.89Z" transform="translate(-60.37 -35.36)"/><path d="M100.28,315.25c-.51-1-1-2.12.14-2.88a3.15,3.15,0,0,1,3.22,0,12.37,12.37,0,0,1,5.49,5.85c1,2.39-.54,4.32-3.11,3.87s-4.26-3.29-5.55-5.44a1.54,1.54,0,0,0-2-.54c-3.23,1.47-5,5.11-4.85,8.54.11,4.07,2.59,7.64,5.38,10.41s6,4.81,10,4a8.94,8.94,0,0,0,7-6.9,9.18,9.18,0,0,0-5-9.78v2.59c3-1.59,6.94,1.53,9.31,3.16,2.55,1.76,5.17,4,5.93,7.16,1.41,5.79-5.77,11-10.67,7.37a7.48,7.48,0,0,1-2.82-8.06c.49-1.59-2-2.73-2.74-1.16A21.19,21.19,0,0,0,117.24,359a16,16,0,0,0,13.14,2.32c4.42-1.19,8.05-4.81,8-9.6-.11-6.14-5.86-10.91-11.43-12.28l.66,2.51c4.3-4.33,12-6.57,17.14-2.42,4.23,3.39,5.77,10.41,1,14.06a8.62,8.62,0,0,1-8.69,1.16,1.5,1.5,0,0,0-1.52,2.59c6.05,4.21,14.4,7.06,20.81,1.89,5.49-4.42,4.5-13.73-2.11-16.56a10.22,10.22,0,0,0-10.93,2c-1.41,1.34.71,3.44,2.12,2.13a26.05,26.05,0,0,1,10.12-5.9c3.15-1,7.84-2.09,10.65.29,2.64,2.24,1.89,6.48.22,9.05a11.59,11.59,0,0,1-9,5.14,1.5,1.5,0,0,0,0,3c8.34.2,18.14,0,23.56-7.39a13.08,13.08,0,0,0,2.5-10.1,9.44,9.44,0,0,0-6.6-7.14,10.34,10.34,0,0,0-10.56,2.65l2.36,1.82c3.19-5.25,10.87-4.64,16.12-4,4.24.52,13.49,2.75,10.51,9-1.5,3.14-5.15,5-8.15,6.43l1.52,2.59A117.79,117.79,0,0,0,199.8,346c2.87-2,5.41-4.64,6.23-8.15.73-3.13.09-6.63-2.48-8.76-2.78-2.3-6.6-2.31-10-2.13l1.06,2.56a23.8,23.8,0,0,1,7.72-5.85c2.36-1.1,5.39-1.84,7.93-.89,2.83,1.06,3.29,4,2.7,6.64-.68,3.07-2.08,5.93-2.64,9a1.53,1.53,0,0,0,1.85,1.85,72.27,72.27,0,0,0,20.19-8.82c1.63-1,.12-3.63-1.51-2.59a69.64,69.64,0,0,1-19.48,8.51l1.85,1.85c.66-3.71,2.54-7.11,2.94-10.88a7.78,7.78,0,0,0-4.44-8.21c-6.8-2.95-14.89,2.31-19.23,7.24a1.52,1.52,0,0,0,1.06,2.56c2.66-.14,6-.39,8.18,1.49,2,1.7,1.93,4.68,1,6.92-1.12,2.77-3.7,4.66-6.16,6.15-3,1.86-6.25,3.49-9.38,5.21-1.71.94-.21,3.41,1.52,2.59,3.36-1.58,6.95-3.67,8.91-6.95a7.92,7.92,0,0,0-1-9.65c-2.41-2.51-6.09-3.56-9.42-4.12a38.08,38.08,0,0,0-11.07-.5c-4,.49-7.8,2.07-10,5.65-.88,1.44,1.19,3.09,2.35,1.82,3.68-4,11.12-2.37,12.15,3.17a10.37,10.37,0,0,1-2.31,7.93,14.39,14.39,0,0,1-8.13,4.92c-4.14,1-8.49.94-12.73.84v3c6.9-.39,13.82-6.06,13.44-13.43a8.15,8.15,0,0,0-5.45-7.54c-3.44-1.2-7.52-.42-10.89.65a29.8,29.8,0,0,0-11.25,6.61l2.12,2.13a6.81,6.81,0,0,1,10.88,7.89c-1.49,2.91-4.92,4.37-8.06,4.41-4.12,0-7.91-2-11.19-4.32l-1.52,2.59c6.8,3.18,15.41-1.18,16.12-8.84a13.19,13.19,0,0,0-3.52-9.84,13.46,13.46,0,0,0-10.22-4.31,18.24,18.24,0,0,0-12.46,5.47,1.52,1.52,0,0,0,.66,2.51c4,1,8.35,4.08,9.14,8.43.69,3.83-2.2,6.73-5.66,7.67-7.76,2.1-14.92-3.73-17.37-10.8a17.28,17.28,0,0,1,.28-12.73l-2.74-1.16c-2.41,7.72,5.75,15.67,13.3,12.28a10.68,10.68,0,0,0,6.25-9.29c.06-4.24-2.88-7.68-6-10.13-3.67-2.82-9.15-6.8-13.87-4.28a1.51,1.51,0,0,0,0,2.59c2.84,1.3,4.58,4.8,3.26,7.79a6.1,6.1,0,0,1-8.11,2.87,15.39,15.39,0,0,1-4.31-3.56A14.26,14.26,0,0,1,97,327c-1-3.08-.25-6.84,2.92-8.28l-2.05-.54c1.65,2.76,3.6,5.75,6.86,6.7,2.84.82,6.17-.15,7.35-3,1.27-3.11-.75-6.43-2.81-8.68s-5.07-4.71-8.4-4.1a5.35,5.35,0,0,0-3.66,2.49c-1,1.75-.36,3.61.47,5.27s3.45.21,2.59-1.52Z" transform="translate(-60.37 -35.36)"/></svg>