<svg id="Layer_2" data-name="Layer 2" xmlns="http://www.w3.org/2000/svg" viewBox="0 0 308.6 345.92"><path d="M90.87,152.36c12.91-1.93,22.75-11.89,29.3-22.58a95.75,95.75,0,0,0,13.35-41,88.1,88.1,0,0,0-1.33-25l-1.44,1.9q28,.38,55.95-1t55.53-4.5q15.65-1.76,31.23-4.07l-1.84-1.84c-1.59,3.79-.59,8,.78,11.65,1.21,3.26,2.61,6.45,4.13,9.57a115.22,115.22,0,0,0,10.78,17.8A119.8,119.8,0,0,0,317.45,122a115.05,115.05,0,0,0,20.8,10.89l-1.1-1.44c-.34,7.87-9.9,9.8-16,10.69-8.41,1.24-16.86,2.26-25.31,3.13-16.8,1.73-33.64,2.86-50.5,3.7s-33.94,1.38-50.92,2-34,1.18-50.92,2.13c-8.48.48-17,1-25.41,1.73q-6.28.53-12.55,1.13a91.36,91.36,0,0,1-12.14.72,30.2,30.2,0,0,1-6.14-.8l1.1,1.44c-.11-2.68,4.49-3.09,6.33-3.39q5.85-1,11.7-1.75c8-1.1,16-2,24.08-2.81,16-1.6,32.12-2.77,48.17-4.15s32.07-3.09,48-5.26c16.14-2.19,32.25-4.25,48.52-5.08,9.12-.46,18.24-.7,27.36-.93s18.1-.33,27,1c1.89.27,2.7-2.62.8-2.9a149.19,149.19,0,0,0-24.64-1.15q-12.42.24-24.83.74c-16.74.69-33.29,2.49-49.88,4.75s-32.92,4.16-49.47,5.6-32.95,2.62-49.4,4.23c-8.26.81-16.51,1.73-24.73,2.83q-6.06.81-12.1,1.77c-3,.47-6.41.78-8.63,3a4.6,4.6,0,0,0-1.37,3.48,1.52,1.52,0,0,0,1.1,1.45c8.25,2,16.92.36,25.23-.39q12.93-1.16,25.89-1.93c17.36-1.07,34.75-1.72,52.14-2.32s34.78-1.14,52.16-2,34.87-1.93,52.24-3.68q12.86-1.3,25.65-3.1c7-1,15.59-2.18,19.19-9.26a11.23,11.23,0,0,0,1.22-4.64A1.54,1.54,0,0,0,339,130a113,113,0,0,1-33.64-21.16,115.71,115.71,0,0,1-24.46-31.34,107.77,107.77,0,0,1-4.71-10c-1.57-3.88-3.45-8.32-1.72-12.46.5-1.18-.88-2-1.85-1.84q-27.48,4.06-55.19,6.4t-55.38,2.93q-15.68.35-31.34.12a1.52,1.52,0,0,0-1.45,1.9,88.34,88.34,0,0,1-2.25,42.17c-3.65,12.3-9.64,24.79-19.12,33.69a33.5,33.5,0,0,1-17.85,9.12c-1.91.28-1.1,3.17.79,2.89Z" transform="translate(-51.62 -23.56)"/><path d="M154,74.28a79.39,79.39,0,0,1-7.53,43.54A78.22,78.22,0,0,1,140,128.69a1.51,1.51,0,0,0,.54,2.06,11.57,11.57,0,0,0,10.46-.62c3.39-1.82,5.79-5,7.73-8.24a141.23,141.23,0,0,0,11.37-22.83,59,59,0,0,0,3.45-14c.18-1.66-2.72-2.07-3-.4-1,7.79,1.41,15.19,2.37,22.84.94,7.48-.5,14.85-5.42,20.73a1.53,1.53,0,0,0,0,2.12c2.92,2.87,8.06.77,11.21-.67a31.59,31.59,0,0,0,9.66-7.15c6.24-6.63,9.81-15,12.9-23.43,2-5.36,3.8-10.77,6.22-15.95l-2.74-.35a76.13,76.13,0,0,1,3.53,42.84,1.51,1.51,0,0,0,1.85,1.84c15.9-4.34,26-19,29.75-34.38A83,83,0,0,0,242,78.27l-2.8.76a60.6,60.6,0,0,1,7.39,20.74,58.89,58.89,0,0,1,.71,10.94c-.1,3.8-.74,7.67.53,11.36.62,1.81,3.52,1,2.89-.8-1.29-3.73-.43-7.8-.4-11.66a63.27,63.27,0,0,0-8.53-32.1,1.51,1.51,0,0,0-2.79.76c-.87,15.36-5.84,31.69-18.85,41.08a33.5,33.5,0,0,1-10.79,5.21l1.85,1.84A79,79,0,0,0,207.66,82c-.41-1.07-2.14-1.65-2.74-.36-6.87,14.68-9.53,33.71-24,43.38a24.61,24.61,0,0,1-5.56,2.81c-1.47.5-4.39,1.7-5.71.4v2.12a28.61,28.61,0,0,0,6.49-21.08c-.68-7.92-3.75-15.8-2.67-23.81l-2.94-.4c-.87,7.64-3.71,14.89-7.09,21.74-1.7,3.45-3.54,6.83-5.39,10.2-1.67,3-3.35,6.18-5.89,8.6s-6.65,4.19-10.13,2.59l.54,2.05a82.27,82.27,0,0,0,14.79-42.87A80.22,80.22,0,0,0,157,74.28c-.22-1.9-3.22-1.92-3,0Z" transform="translate(-51.62 -23.56)"/><path d="M95.28,163.35C87.2,176.46,91,192.56,92.9,206.83c2.33,17.17,1,34.5-1.66,51.55-2.75,17.24-6.8,34.23-9.8,51.42-.33,1.87-.79,3.87.07,5.67a5.73,5.73,0,0,0,3.2,2.78,13.38,13.38,0,0,0,4.44.78c2.16.1,4.34.12,6.51.14,8.86.06,17.73-.29,26.57-.9,17.66-1.21,35.22-3.41,52.82-5.21s35.24-2.85,53-3c9-.07,18,0,27-.28,2.23-.06,4.46-.13,6.69-.23,1.69-.07,3.6,0,5.07-.94s1.89-2.84,2.18-4.57c.34-2,.66-4,1-5.95,2.53-15.87,4.68-32.05,10.73-47.05,3.12-7.75,7.56-14.78,12-21.81a180.83,180.83,0,0,0,11.8-21.33,159,159,0,0,0,13.15-46.11q.75-5.85,1-11.74c.1-1.93-2.9-1.92-3,0a155.49,155.49,0,0,1-9.44,45.81,152.69,152.69,0,0,1-9.86,21.43c-3.95,7.09-8.61,13.74-12.66,20.77-8,13.84-11.71,29.23-14.36,44.85-.66,3.9-1.27,7.82-1.89,11.73-.3,1.91-.6,3.83-.92,5.74-.15.95-.31,1.91-.47,2.86a6.59,6.59,0,0,1-.62,2.53,2.39,2.39,0,0,1-1.91.7c-1.1.08-2.21.1-3.32.14-2.14.09-4.29.15-6.44.2-4.37.11-8.75.15-13.13.18-17.36.11-34.65.29-52,1.76-17.15,1.45-34.23,3.62-51.36,5.24-8.59.81-17.2,1.48-25.82,1.85-4.3.18-8.61.29-12.92.3q-3.18,0-6.35-.05a27.93,27.93,0,0,1-5.33-.34c-1.27-.27-2.67-.8-2.87-2.24-.27-1.9.5-4.17.84-6,.77-4.21,1.59-8.41,2.43-12.61,1.68-8.41,3.44-16.8,5-25.23,3.07-16.56,5.43-33.41,4.71-50.29-.33-7.87-1.61-15.59-2.66-23.38-1-7.07-1.69-14.45-.25-21.51a29.32,29.32,0,0,1,3.77-9.63c1-1.65-1.58-3.16-2.6-1.51Z" transform="translate(-51.62 -23.56)"/><path d="M128.37,178c-.35,8.47-.69,16.95-1.51,25.38-.72,7.34-1.38,15.33-5.81,21.51-1,1.44,1.15,2.9,2.36,1.82,5.57-5,13.47-5.73,20.64-5.67a251,251,0,0,1,27,2c1,.12,1.65-1,1.44-1.89a50.09,50.09,0,0,1,0-24,49.5,49.5,0,0,1,4.26-11.23c2-3.82,4.78-7.18,6.86-11a1.52,1.52,0,0,0-1.3-2.26l-28.83-1.15c-9.19-.37-18.69-1.35-27.74.77-1.88.44-1.08,3.34.8,2.9,8.91-2.1,18.38-1,27.43-.65l28.34,1.13L181,173.41c-2.19,4-5.07,7.48-7.15,11.52a53.2,53.2,0,0,0-4.3,37L171,220a232.62,232.62,0,0,0-28.15-2c-7.66,0-15.69,1.24-21.58,6.55l2.35,1.81c4.55-6.35,5.35-14.5,6.12-22.05.89-8.75,1.24-17.55,1.61-26.35.08-1.93-2.92-1.92-3,0Z" transform="translate(-51.62 -23.56)"/><path d="M208.51,174.82q.24,10.25-.46,20.47c-.24,3.41-.55,6.81-1,10.2-.19,1.64-.39,3.29-.63,4.92a24.53,24.53,0,0,0-.59,5c.42,5.73,7.79,4,11.36,3.28a82.77,82.77,0,0,1,40.62,2.09,1.52,1.52,0,0,0,1.85-1.85c-4.35-13.89.85-28.3,3.45-42,.28-1.44.78-3.07.33-4.51a3.74,3.74,0,0,0-2.63-2.4c-2.78-.77-6.11.51-8.84,1a136.69,136.69,0,0,1-22,2.09,138.53,138.53,0,0,1-24.91-1.89c-1.89-.31-2.7,2.58-.8,2.9a142.75,142.75,0,0,0,42.64.71c3.56-.48,7.07-1.14,10.59-1.83.78-.16,2.12-.47,2.82,0,.86.61-.07,3.13-.24,4-1.35,6.83-3.15,13.57-4.2,20.46-1.13,7.41-1.35,15,.92,22.23l1.84-1.85a86.23,86.23,0,0,0-36.37-3.05c-2.88.38-5.69,1-8.54,1.55-1.2.23-4.05.74-4.77-.69a3.79,3.79,0,0,1,0-2l.36-2.41c.22-1.58.43-3.16.62-4.75.39-3.23.7-6.46.95-9.71q.83-10.94.57-21.93c0-1.92-3-1.93-3,0Z" transform="translate(-51.62 -23.56)"/><path d="M135.89,196.18c10.89-5,23.34-3.23,34.91-4.5,1.9-.21,1.92-3.21,0-3-12.19,1.33-25-.33-36.42,4.91-1.75.8-.23,3.38,1.51,2.59Z" transform="translate(-51.62 -23.56)"/><path d="M148.48,179.59c1.72,1.58,2.21,3.84,2.32,6.08a64.06,64.06,0,0,1-.34,8.54,116.84,116.84,0,0,1-3,18.21c-.46,1.88,2.44,2.68,2.9.8a123.47,123.47,0,0,0,3.18-20c.38-5.11,1.29-11.92-2.93-15.79-1.43-1.3-3.55.82-2.13,2.12Z" transform="translate(-51.62 -23.56)"/><path d="M211.91,198A224.8,224.8,0,0,1,237,196q6.26-.14,12.49.1c3.55.12,7.66-.11,10.72,2,1.6,1.1,3.1-1.5,1.52-2.59-3.14-2.16-7.11-2.19-10.77-2.35q-6.48-.27-13-.17A223.69,223.69,0,0,0,211.91,195a1.54,1.54,0,0,0-1.5,1.5,1.5,1.5,0,0,0,1.5,1.5Z" transform="translate(-51.62 -23.56)"/><path d="M231.13,175.67c1.3-2.55-2.88-3.94-3.52-1.14-.31,1.32.18,3,.3,4.3.13,1.6.23,3.19.28,4.79a95,95,0,0,1-1.28,19.2c-.32,1.89,2.57,2.7,2.89.8a100.57,100.57,0,0,0,1.42-14.48c.06-2.4,0-4.8-.1-7.2-.06-1.19-.15-2.39-.26-3.59-.05-.63-.12-1.27-.19-1.91,0-.31-.07-.63-.11-.95,0-.87-.67-1-2.09-.34l.15-1.15-.08.15c-.87,1.72,1.72,3.24,2.59,1.52Z" transform="translate(-51.62 -23.56)"/><path d="M132.35,257.88a185.74,185.74,0,0,1,18.71-14.1c4.7-3.09,13.31-8.68,17.59-2,1.76,2.79,2.12,6.3,2.36,9.51a1.52,1.52,0,0,0,2.56,1.06,41.57,41.57,0,0,1,20.57-12.34c4-1,8.51-1.63,12.51-.2,3.24,1.16,6.08,4.26,5.92,7.87-.15,3.41-3.32,5.26-6.25,6.12-3.8,1.1-7.86,1.23-11.78,1.61-9.55.95-19.1,2.08-28.69,2.62-10.44.59-21,.26-31.09-2.83a1.51,1.51,0,0,0-1.69,2.2c3.63,5.56,7.39,11.26,12.48,15.6a31.4,31.4,0,0,0,19.4,7.29c12.4.59,25.69-2.74,35.87-9.95a38.85,38.85,0,0,0,13-15.18c.8-1.74-1.78-3.27-2.6-1.52-4.84,10.46-14.69,17.32-25.43,20.79a60.34,60.34,0,0,1-17.27,2.9c-6.95.16-13.8-1.11-19.47-5.34s-9.58-10.29-13.38-16.1l-1.69,2.2c9.78,3,20.09,3.5,30.25,3,10.54-.5,21.06-1.79,31.56-2.83,6.75-.67,18.49-.82,19.7-9.75.53-3.9-1.63-7.7-4.72-10-3.75-2.73-8.76-2.91-13.18-2.3a44,44,0,0,0-26.13,13.94l2.56,1.06c-.49-6.43-2.15-14.66-9.88-15.59-4-.48-7.89,1.32-11.21,3.3-3.72,2.21-7.29,4.74-10.79,7.29q-6.13,4.48-11.91,9.43c-1.46,1.26.67,3.37,2.13,2.12Z" transform="translate(-51.62 -23.56)"/><path d="M316.91,164.53a81.53,81.53,0,0,0,4.29,44.15c2.68,6.81,6.07,13.53,6.48,21,.39,7.22-1.15,14.6,1,21.65a17.52,17.52,0,0,0,5.24,8.38,21.24,21.24,0,0,0,4.17,2.5c1.25.63,2.71,1.3,3.09,2.76l1-1.85c-11.3,3.45-22.84,6.51-33.82,10.88a82.63,82.63,0,0,0-14.67,7.39c-4.43,2.9-8.23,6.49-12.16,10-4.1,3.67-8.54,7.15-14.12,8-1.9.3-1.1,3.19.79,2.89,10.28-1.62,16.66-10.91,24.58-16.67,9-6.57,19.71-10.27,30.29-13.56,6.62-2.05,13.27-4.05,19.9-6.07a1.53,1.53,0,0,0,1.05-1.85c-.76-2.93-3.55-4-6-5.3a12.53,12.53,0,0,1-5.61-6c-3-6.31-1.8-13.53-1.77-20.27a39.34,39.34,0,0,0-1.54-11.37,98.75,98.75,0,0,0-3.76-10,88.4,88.4,0,0,1-6-20.82,77.64,77.64,0,0,1,.4-25c.34-1.89-2.55-2.7-2.89-.8Z" transform="translate(-51.62 -23.56)"/><path d="M86.19,82.46c3,7.54,6.31,15,12.39,20.58a37.17,37.17,0,0,0,9.12,6.24c3.34,1.6,7.43,3.4,11.18,2.44,1.87-.48,1.08-3.37-.8-2.89s-3.79-.17-5.56-.78a31.37,31.37,0,0,1-4.37-1.9,34.41,34.41,0,0,1-8-5.77c-5.35-5.18-8.28-11.92-11-18.71-.72-1.77-3.62-1-2.9.79Z" transform="translate(-51.62 -23.56)"/><path d="M100.76,70.06a27.23,27.23,0,0,0,12.63,15.53c6.33,3.53,13.6,4.68,20.67,5.72,1.89.28,2.7-2.61.8-2.89-6.53-1-13.32-1.94-19.24-5a24.31,24.31,0,0,1-12-14.12c-.58-1.84-3.48-1-2.89.79Z" transform="translate(-51.62 -23.56)"/><path d="M98.26,75.23a23.25,23.25,0,0,0,10-8.69,1.51,1.51,0,0,0-2.36-1.82A42.9,42.9,0,0,1,83.57,77.8c-1.88.43-1.09,3.32.8,2.89a45.65,45.65,0,0,0,23.69-13.85L105.71,65a20.4,20.4,0,0,1-9,7.62c-1.76.78-.23,3.37,1.52,2.59Z" transform="translate(-51.62 -23.56)"/><path d="M93.47,86c1.36,1.64,3.65,1.45,5.39.57s2.87-3.16,4.93-3.55l-1.85-1.85a19,19,0,0,1-5.29,7.31,1.53,1.53,0,0,0,0,2.12,3.14,3.14,0,0,0,2.91.77,11.47,11.47,0,0,0,1.31-.35,7,7,0,0,0,1.2-.32c-.13.08-.22-.23-.23-.22-.06-.21-.11-.16-.14.16l-.18.35a8.66,8.66,0,0,0-.69,1.7,3.36,3.36,0,0,0,1.46,3.49c2.79,1.93,5.69-.4,8.34-1.39.73-.27,1.64-.38,2.33-.72a2.71,2.71,0,0,1,.41-.09c-.37-.39-.53-.39-.51,0-.17.23-.11.88-.15,1.2L112,101c-.16,1.26,1.37,1.7,2.26,1.3a41.67,41.67,0,0,1,12-3.31c1.9-.23,1.92-3.23,0-3a46.24,46.24,0,0,0-13.5,3.72L115,101l.75-5.77c.2-1.55.49-3.44-1.38-4.06-1.41-.46-3.2.3-4.5.79-1.53.57-3.06,1.7-4.66,2-.46.09-1.28.08-1.42-.5-.1-.36.59-1.34.72-1.67a2.87,2.87,0,0,0-.6-3.37,3.21,3.21,0,0,0-3-.48c-.48.12-1,.31-1.43.44-.2.06-.42.09-.62.15-.38.13-.16-.07-.07,0v2.12A22.4,22.4,0,0,0,104.84,82c.46-1.16-.86-2-1.85-1.84a8.25,8.25,0,0,0-4.1,2.64c-.72.69-2.37,2.23-3.3,1.11-1.24-1.49-3.35.64-2.12,2.12Z" transform="translate(-51.62 -23.56)"/><path d="M82.25,63.31c.33-.29.4-.45.21-.46l-.11,0c0,.07-.4-.25-.24-.07-.52-.62.56-2.19.85-2.68a25.41,25.41,0,0,1,2.91-4.28c1.94-2.19,5.71-4.25,8.26-1.74l1.46-2.51c-2.38-.48-.61-3.61.2-4.69a34.13,34.13,0,0,1,5-5.37c3.58-3,8.79-5.17,13.39-3.2a1.57,1.57,0,0,0,1.82-.23c5.29-5.17,11.79-11.09,19.59-11.51,5.88-.32,12.65,2.7,14,8.91.3,1.39,2,1.31,2.74.36A22.22,22.22,0,0,1,172.47,27a22.62,22.62,0,0,1,10.64,4.22,19.05,19.05,0,0,1,4.22,4.14c.73,1,1.85,4.23-.54,3.92l.76,2.8c1.66-1.17,3.49-2.52,5.56-2.77,1.36-.17,3.24.31,3.83,1.7.74,1.75-.94,3.44-2.37,4.13a19.13,19.13,0,0,1-6.18,1.27,77.21,77.21,0,0,1-26.75-1.89c-4.41-1.11-8.58-2.85-12.91-4.2a25.64,25.64,0,0,0-13.18-.63,87.29,87.29,0,0,0-12.7,4,49.89,49.89,0,0,0-11.16,5.55c-3.84,2.68-6.91,6.29-10.74,9-3.44,2.41-8.19,4.17-12.2,2.06-1.7-.9-3.22,1.69-1.51,2.59,3.85,2,8.22,1.51,12.07-.24,4.19-1.9,7.41-5.36,10.82-8.34A40.64,40.64,0,0,1,122,47.2a89.59,89.59,0,0,1,14.08-4.55,21.83,21.83,0,0,1,7.64-.42,36.12,36.12,0,0,1,7,2,95.81,95.81,0,0,0,14.17,4.15,79.55,79.55,0,0,0,14.68,1.5,74.94,74.94,0,0,0,7.64-.3,36,36,0,0,0,6.94-1,8.16,8.16,0,0,0,5.34-4.16,5.33,5.33,0,0,0-.81-6C195,34.4,189.63,37,186,39.51a1.51,1.51,0,0,0,.76,2.79,4.11,4.11,0,0,0,4.12-2.61,5.84,5.84,0,0,0-.66-5.32,22.07,22.07,0,0,0-8.63-7.57,25,25,0,0,0-22-.6,25.53,25.53,0,0,0-9.86,8.1l2.74.36c-1.2-5.54-6.12-9.3-11.44-10.59-6.36-1.54-12.68.57-18,4.12a64.7,64.7,0,0,0-9.18,7.75l1.82-.24c-6.42-2.74-13.13,0-18,4.5-2.23,2.09-4.93,4.76-6,7.68-.94,2.55.09,6,3,6.56a1.51,1.51,0,0,0,1.46-2.5,7.61,7.61,0,0,0-7.9-1.49c-3,1-5.06,3.5-6.73,6.08-1.43,2.2-4.1,6-1.57,8.4a3,3,0,0,0,5.2-1.62c.23-1.91-2.77-1.89-3,0Z" transform="translate(-51.62 -23.56)"/><path d="M351.46,149.3a2.85,2.85,0,0,1,4.21-.8c1.77,1.31,1.82,4,1.23,5.9-.77,2.51-2.63,4.55-4.3,6.51-2,2.3-4,4.56-5.85,6.9-1.58,1.94-1.45,4.12.73,5.53.89.58,1.91.94,2.83,1.49a15.49,15.49,0,0,1,2.94,2.29c3.23,3.23,4.9,7.82,3.26,12.25-1.8,4.86-6.66,8.09-10.8,10.84-1.33.88-.53,3.36,1.16,2.74,3.25-1.2,6.4,2.18,6.42,5.33,0,3.76-3.1,6.84-6.09,8.68-1.61,1-3.62,2.06-5.54,1.34a7.61,7.61,0,0,1-3.64-3.74c-2-3.69-3-8.23-1.65-12.31,2.18-6.62,8.77-11.35,8.52-18.84-.12-3.53-1.61-6.8-3.1-9.93-1.37-2.9-3.06-6-3.06-9.28,0-3.72,2.64-6.27,5.23-8.58s5.45-4.84,6.49-8.42a1.5,1.5,0,0,0-2.89-.8c-1,3.44-4.17,5.64-6.68,8-2.69,2.5-4.9,5.4-5.14,9.19s1.62,7.55,3.23,10.95,3.47,7.08,2.8,10.9-3.43,7.19-5.52,10.48c-2.35,3.7-3.92,7.67-3.41,12.12.48,4.21,2.24,9.16,5.67,11.88,3.92,3.1,8.56,1.07,12.07-1.64s6.69-7.33,5.42-12.07c-1.11-4.14-5.57-7.73-9.93-6.13l1.16,2.75c4.35-2.89,9.07-6.15,11.46-11a14,14,0,0,0-1.5-14.69,18.47,18.47,0,0,0-6-5.27c-.53-.29-2.46-.85-2.58-1.5-.07-.37,1.1-1.41,1.35-1.71l1.92-2.25c3.65-4.31,9.13-9.22,8.27-15.45a6.66,6.66,0,0,0-4.93-5.87,5.61,5.61,0,0,0-6.33,2.7c-.84,1.73,1.75,3.26,2.59,1.51Z" transform="translate(-51.62 -23.56)"/><path d="M102.26,354.51c5.33-5.77,11-11.64,18.25-14.94,6.55-3,14.66-3.4,20.78.76a1.53,1.53,0,0,0,2.06-.54,23.72,23.72,0,0,1,36.46-3.93,1.52,1.52,0,0,0,2.36-.3,23.83,23.83,0,0,1,14.88-11.33,24.92,24.92,0,0,1,9.38-.69,24.18,24.18,0,0,1,9.48,3.5c3.39,2,6.76,4.18,10.79,4.54,3.57.32,7-.93,10.24-2.32s6.51-3.15,10.06-3.75a12.31,12.31,0,0,1,2.43-.17,3,3,0,0,1,1.08.12c.5.22.41.33.15.85a20.82,20.82,0,0,1-3.31,4.46c-11.1,12.38-28.56,15.15-44,18a130.61,130.61,0,0,0-25.92,7.12c-7.83,3.19-15.48,7-23.7,9.07-8.88,2.26-17.81,1.63-26.62-.63-4.41-1.13-8.73-2.59-13-4.13-2.11-.77-4.25-1.5-6.34-2.35a12.49,12.49,0,0,1-4.92-3.15,5.17,5.17,0,0,1-1.23-4.88c.56-1.85-2.33-2.64-2.9-.79-1.27,4.16,1.47,8.08,4.94,10.14a35,35,0,0,0,5.9,2.55c2.28.84,4.57,1.67,6.87,2.47,9.26,3.2,19,5.83,28.93,5.16,9.15-.62,17.67-4.09,26-7.66,4.23-1.81,8.44-3.65,12.78-5.16a109,109,0,0,1,14.22-3.75c17-3.48,36-5.28,49.2-17.88a37,37,0,0,0,3.91-4.38c1.16-1.53,3-3.59,2.4-5.67-1-3.85-7.18-2.52-9.86-1.71-3.7,1.12-7.06,3.08-10.7,4.37a13.57,13.57,0,0,1-11.32-.48c-3.62-1.85-6.85-4.32-10.78-5.54a25.73,25.73,0,0,0-10.28-1,28,28,0,0,0-18.36,9.31,25,25,0,0,0-2.92,4.22l2.35-.3a26.75,26.75,0,0,0-41.17,4.54l2.05-.54c-6.68-4.54-15.51-4.25-22.74-1.23-8,3.32-14.17,9.64-19.93,15.88-1.31,1.42.81,3.54,2.12,2.12Z" transform="translate(-51.62 -23.56)"/><path d="M73.07,219.37c-1.87,1.56-4.52,1.35-6.61.37a9.4,9.4,0,0,1-5-6.24,23.89,23.89,0,0,1,0-10.17c.37-2.23.73-6.26,3.5-6.76,1.33-.24,1.39-2.12.36-2.74-8.7-5.24-12.54-16.71-9.69-26.3A19.09,19.09,0,0,1,56.92,164c.65-1.26,1.56-2.35,2.22-3.59,1.68-3.15-.52-6.62-1.24-9.76a35.75,35.75,0,0,1,1.22-19.76q.43-1.22,1-2.4c.24-.52.54-1.53,1-1.86.74-.5,1.9.64,2.49,1A6.45,6.45,0,0,0,66.78,129c1.64.07,2.74-.92,4.12-1.62,2.4-1.24,3.84,1.88,4.41,3.75,1,3.31,1.09,7,1.19,10.48A74.28,74.28,0,0,1,76,153.11c-.44,3.53-1.2,7.07-.72,10.64.45,3.33,2.31,5.78,3.84,8.66,1.65,3.11,1.59,6.61,1.37,10-.26,3.9-.65,7.79.34,11.63.89,3.46,2.86,6.9,2.71,10.56-.12,3.2-2.47,5.36-4.68,7.38s-4.32,4.05-5.35,6.92c-.66,1.81,2.24,2.6,2.89.79.93-2.57,3.25-4.35,5.19-6.15s4.07-4.11,4.7-6.94c.77-3.46-.42-6.85-1.54-10.09a27.07,27.07,0,0,1-1.45-5.38,30,30,0,0,1,0-5.44c.22-3.64.68-7.32-.1-10.93a16.66,16.66,0,0,0-2.06-5,22.81,22.81,0,0,1-2.44-4.57c-1.15-3.61-.27-7.52.21-11.18a76.3,76.3,0,0,0,.65-12.27,47.88,47.88,0,0,0-1.22-11.2c-.69-2.52-2.18-5.48-4.84-6.37a5.11,5.11,0,0,0-4.07.5c-1.15.63-2,1.6-3.34.93-2.25-1.12-4.64-3.46-7.05-1.12a12.16,12.16,0,0,0-2.24,4.2A36.19,36.19,0,0,0,55.09,134a39,39,0,0,0-1,10.76,38,38,0,0,0,2,10.4,8.49,8.49,0,0,1,.76,2.73,4.73,4.73,0,0,1-1.17,2.43,21.68,21.68,0,0,0-1.94,3.5c-4.41,10.06-1.68,23,6.7,30.21a24.26,24.26,0,0,0,3.3,2.38l.36-2.74c-3.89.69-5,5.14-5.53,8.43-.74,4.26-1.2,8.82.22,13a12.31,12.31,0,0,0,7,7.58,9,9,0,0,0,9.45-1.19c1.48-1.25-.65-3.36-2.12-2.12Z" transform="translate(-51.62 -23.56)"/></svg>