<svg id="Layer_1" data-name="Layer 1" xmlns="http://www.w3.org/2000/svg" viewBox="0 0 333.29 377.26"><path d="M161,157.19a176,176,0,0,0-67.9,18.16A173.35,173.35,0,0,0,63.51,194.1c-9.13,7.16-17.93,15.6-22.7,26.37-4.59,10.36-5.35,22.49.46,32.54,5.47,9.46,15.17,15.67,25.38,19,12.15,3.92,25.34,4.46,38,4.93a386,386,0,0,0,39.67-.59,512.22,512.22,0,0,0,78.77-11.74c13.08-2.93,26.06-6.28,39-9.93,11.86-3.36,23.82-6.73,35.39-11,9.6-3.54,19.16-8,26.68-15.13a40.2,40.2,0,0,0,12.65-25.84c.86-9.84-1.74-19.87-6.45-28.48a58.18,58.18,0,0,0-21.64-21.9c-20.05-11.9-44.71-13.56-67.44-11.73-26.29,2.11-51.81,9.37-76.78,17.54-6.13,2-12.24,4.07-18.35,6.14-1.82.61-1,3.51.8,2.89,24.21-8.2,48.58-16.41,73.81-20.89,22.89-4.07,47.56-5.5,70,1.47,10.18,3.14,20,8.22,27.66,15.7a52.13,52.13,0,0,1,14.14,24.69c2.26,9.12,1.84,19.06-2.44,27.53-4.52,9-12.58,15.3-21.34,19.84-9.53,4.94-19.91,8-30.14,11.14-12.37,3.78-24.82,7.31-37.35,10.5a564.93,564.93,0,0,1-76,14.31c-25.37,2.87-51.11,3.73-76.58,1.52-11.62-1-23.63-3.09-33.52-9.67-8.92-5.93-15.14-15.2-15.16-26.14,0-11.58,5.94-22.07,13.69-30.3S71,191.71,80.67,185.74A173.3,173.3,0,0,1,144.29,162c5.55-.89,11.14-1.48,16.74-1.82,1.92-.11,1.93-3.11,0-3Z" transform="translate(-19.52 -16.87)"/><path d="M63.66,241q8.94-21.56,19.08-42.61c.9-1.88,2.89-5.89,4.92-2.67a14.3,14.3,0,0,1,1.46,4c.47,1.76.92,3.53,1.37,5.3,1.79,7.1,3.47,14.22,5.49,21.26a135.67,135.67,0,0,0,8.61,22.91c.71,1.43,2.7.61,2.79-.76.59-9,1.48-18,2.72-26.87,1.2-8.66,2.56-17.38,4.55-25.91.9-3.86,2.18-7.73,5.28-10.39H117.8c4.14,4.09,7,9.2,9.43,14.41,2.66,5.61,5.12,11.29,7.92,16.83q4.36,8.61,9.36,16.88c1.22,2,3.06,4.6,5.75,4.38,3-.24,3.5-3.84,4.08-6.14,3.16-12.63,3.29-25.72,4.84-38.59.37-3.13.84-6.25,1.46-9.34.2-1,.35-2.46,1.18-3.17,1-.83,2.13.11,2.83.84,2,2.13,3.08,5.32,4.33,7.94l4.38,9.15q4.89,10.22,9.79,20.45c2.9,6.06,5.93,12.11,10.5,17.11a1.51,1.51,0,0,0,2.51-.66c2.72-19.3-.23-39.62,6.28-58.3a40.55,40.55,0,0,1,2.81-6.53c1-1.68,2.52-3.62,4.64-2.56,1.9,1,3.5,3.07,4.89,4.63a64.86,64.86,0,0,1,4.1,5.1c5.17,7.07,9.2,14.88,13.42,22.54,4.75,8.64,9.84,17.23,16.83,24.27a1.52,1.52,0,0,0,2.36-.3c3.95-6.53,3.43-14.55,4.08-21.87A145.9,145.9,0,0,1,260,177.58q.79-3,1.73-6c.45-1.41,1-3.1,2.19-4,2.87-2.15,6.63,1.59,8.43,3.53,4.46,4.8,7.89,10.41,11.59,15.79,4.1,6,8.62,11.72,14.79,15.67,1.63,1,3.14-1.55,1.51-2.59-11.58-7.41-16.65-21.19-25.77-31-2.27-2.45-5.36-5.13-8.94-5-3.79.15-5.61,3.42-6.64,6.64A146.09,146.09,0,0,0,253.29,196c-.64,4.75-.93,9.51-1.25,14.29-.3,4.32-.86,8.72-3.14,12.49l2.35-.3c-13.09-13.19-18.95-31.4-29.78-46.21-1.36-1.86-2.79-3.68-4.31-5.41a32,32,0,0,0-4.9-4.83,5.68,5.68,0,0,0-6.22-.61c-1.92,1.07-3.15,3.11-4.07,5-4.38,9.17-6,19.29-6.65,29.35-.79,11.61-.43,23.3-2.06,34.84l2.51-.66c-4-4.43-6.8-9.79-9.38-15.14-2.93-6.08-5.82-12.17-8.73-18.25s-5.61-12.22-8.7-18.16c-1.11-2.13-2.94-4.54-5.43-5.06s-4.45,1.26-5.25,3.48a46.31,46.31,0,0,0-1.69,9.08c-.44,3.16-.78,6.33-1.08,9.51-.6,6.48-1,13-1.86,19.44-.4,3.11-.91,6.22-1.57,9.29-.33,1.53-.7,3.05-1.11,4.55-.14.5-.25,1.56-.67,1.95s-.92,0-1.32-.28a11.33,11.33,0,0,1-2.37-3.24c-.84-1.42-1.68-2.84-2.49-4.27-1.61-2.79-3.15-5.61-4.65-8.46-3.24-6.17-6.1-12.51-9-18.84-2.74-5.91-5.85-11.73-10.52-16.35a1.53,1.53,0,0,0-2.13,0,18.88,18.88,0,0,0-5.4,9.25,122,122,0,0,0-2.63,12.43q-2.52,13.8-4,27.76-.85,7.92-1.37,15.85l2.8-.76c-7-14.1-10.27-29.61-14.14-44.77-.79-3.1-1.27-6.8-3.27-9.41a4.66,4.66,0,0,0-7.4-.34,18.22,18.22,0,0,0-2.54,4.35c-.88,1.83-1.74,3.65-2.61,5.48q-2.68,5.72-5.29,11.46-5.79,12.76-11.17,25.73c-.73,1.78,2.17,2.56,2.9.8Z" transform="translate(-19.52 -16.87)"/><path d="M93.72,170c-11.76,5.16-26.14.72-34-9.16-8.12-10.26-9.25-24.81-4-36.6A45.63,45.63,0,0,1,84.49,99.47a49.66,49.66,0,0,1,37.91,3.92c11.15,6.24,20.91,18.26,20.67,31.6-.25,13.78-14.48,21.67-26.46,23.9A37.47,37.47,0,0,1,95.3,157a28.19,28.19,0,0,1-13.73-12.4c-2.85-5.25-4.43-12.9-1.09-18.31s11.31-6.56,17-5.54,11.32,4.45,13.91,9.93a16.87,16.87,0,0,1-1,16.11c-1.71,2.59-4.66,5-7.9,5-2.91,0-5-2.33-5.76-5A7.57,7.57,0,0,1,99.24,139c2-1.68,4.89-2,6.76.07,1.32,1.44,2,3.93.6,5.53-1.29,1.43.83,3.56,2.12,2.12,4.22-4.68-.35-12.59-6.4-12.09a9.82,9.82,0,0,0-7.77,5.58,10.6,10.6,0,0,0,.22,9.71,8.79,8.79,0,0,0,8.11,4.8c3.79-.22,7.13-2.58,9.38-5.52a19.61,19.61,0,0,0,2.36-18.66c-2.53-6.47-8.41-10.93-15.09-12.5s-15.18-.57-20.09,4.64c-5.1,5.42-4.4,14.31-1.72,20.69a30.75,30.75,0,0,0,14.19,15.27c13.82,7.08,32.37,4.31,44.37-5.22,5.72-4.54,9.66-11.05,9.79-18.47.14-7.64-3-15.3-7.5-21.35-8.91-12-23.21-18.72-38-19.21s-29.88,5.38-39.83,16.66-14.09,26.89-9,41.24a34.61,34.61,0,0,0,12.93,17.14,33,33,0,0,0,20.44,5.6,30.15,30.15,0,0,0,10.1-2.49c1.77-.78.24-3.36-1.51-2.59Z" transform="translate(-19.52 -16.87)"/><path d="M252.58,137.61c-5.62-.63-11.46-1.52-16.48-4.26a21.67,21.67,0,0,1-10-12.08c-3.64-10.37-1.67-23.35,5.54-31.76a30.47,30.47,0,0,1,26.52-10.36c9.92,1.27,18.52,8.36,22.49,17.42a27.76,27.76,0,0,1-3.81,28c-6,7.82-16.77,13-26.54,9.52-10.4-3.71-10.92-16.57-6.37-25,2.43-4.52,6.41-8.79,11.66-9.75,4.54-.84,9.43,1.55,12.09,5.22a11.3,11.3,0,0,1,.16,13c-2.57,4-7.52,6.73-12.29,5.54-2.56-.64-4.58-2.53-4.46-5.32a6,6,0,0,1,4.77-5.4,6.73,6.73,0,0,1,6.66,2.18,4.59,4.59,0,0,1,.47,5.87c-1.15,1.5-3.32,2.49-5.1,1.55s-3.23,1.7-1.52,2.59c5.12,2.68,11.26-2.27,10.4-7.79-1-6.3-8.45-9.17-13.82-6.5-5.88,2.92-6.63,11.58-.61,14.79,5.35,2.85,12,.76,16-3.38s5.75-10.28,3.54-15.72a16.17,16.17,0,0,0-12.71-9.71c-12.62-1.62-21.27,13.11-21.06,24.12.12,5.81,2.58,11.38,7.49,14.66s11.63,3.74,17.37,2.3c11.54-2.91,20.53-13.49,22.49-25.1,2-11.83-3.58-23.62-13.17-30.57-9.77-7.08-22.72-7.4-33.28-1.85a32.16,32.16,0,0,0-12.52,11.67,37.36,37.36,0,0,0-5.14,20c.13,6.17,1.77,12.55,5.45,17.58,3.92,5.36,9.73,8.41,16.08,9.95a77.62,77.62,0,0,0,9.71,1.57c1.92.21,1.9-2.79,0-3Z" transform="translate(-19.52 -16.87)"/><path d="M117.55,277q-20.7,16.67-39.8,35.17a1.51,1.51,0,0,0,.66,2.51c6,1,9.94,6.25,13.48,10.74,4.2,5.31,8.24,10.76,11.9,16.45a111.82,111.82,0,0,1,9.49,17.81c1.2,2.91,2.62,6.07,2.86,9.24a6.48,6.48,0,0,1-.83,4.12,13.54,13.54,0,0,1-3.81,3.29L90.28,391.27c-1.57,1.11-.07,3.71,1.52,2.59l20.4-14.37c2.79-2,5.93-3.86,6.73-7.44.72-3.2-.26-6.48-1.34-9.48-4.92-13.67-13.09-25.8-22-37.19-4.27-5.5-9-12.39-16.43-13.6l.66,2.51q19.08-18.5,39.8-35.17c1.51-1.21-.63-3.32-2.12-2.12Z" transform="translate(-19.52 -16.87)"/><path d="M151,274.1a154.28,154.28,0,0,0-22.55,25.53c-.85,1.21.55,2.36,1.69,2.2a230.23,230.23,0,0,1,30.93-2.08c5.13,0,10.28.15,15.41.52,2.11.15,4,.63,4.6,2.86a20.32,20.32,0,0,1,.28,6.18,75.28,75.28,0,0,1-2.65,16.87,1.51,1.51,0,0,0,2.9.8,79.23,79.23,0,0,0,2.68-16.25c.24-4,.91-9.94-3.2-12.34-2.12-1.25-4.88-1.15-7.26-1.28-2.78-.16-5.56-.26-8.34-.32q-8.6-.17-17.18.31c-6.35.35-12.67,1-19,1.84l1.7,2.2a150.39,150.39,0,0,1,22.09-24.92c1.43-1.3-.7-3.42-2.13-2.12Z" transform="translate(-19.52 -16.87)"/><path d="M248.94,260.5a76.61,76.61,0,0,1,8,.15c1.89.16,4.05.55,5.46,1.93,1.64,1.62,1.4,4.13.84,6.17a28,28,0,0,1-3,6.81,32.62,32.62,0,0,1-4.56,6c-1.66,1.72-3.59,3.2-4.95,5.2a7.49,7.49,0,0,0-1.15,6.44c.75,2.17,2.68,3.47,4.68,4.41,5.91,2.77,12,5.31,17.92,8,1.75.78,3.28-1.8,1.51-2.59l-16.57-7.36c-1.84-.82-4.66-1.75-4.84-4.11s1.94-4.42,3.58-6a37.39,37.39,0,0,0,8.88-12.25c1.76-4,3.37-9.5-.33-13a11.08,11.08,0,0,0-6.4-2.58,62.5,62.5,0,0,0-9.08-.27c-1.92,0-1.93,3,0,3Z" transform="translate(-19.52 -16.87)"/><path d="M308.39,242.22c2-3,7.24-.64,9.73.37l14.8,6c1.78.73,4.33,1.36,5.19,3.31.72,1.66.22,3.65-.33,5.28a48.47,48.47,0,0,1-3,6.35l-3.62,7.1-14.63,28.63c-1.24,2.43-2.5,4.85-3.72,7.29-1,2-1.89,4.13-1.36,6.35s2.48,3.54,4.15,4.87l6.22,4.94,28.37,22.54c1.49,1.19,3.63-.92,2.12-2.12l-26.23-20.84-6.61-5.25-3-2.43a5,5,0,0,1-2.08-2.51c-.49-2.25,1.55-5,2.52-6.89l3.85-7.54,15.3-30c2.08-4.06,4.91-8.33,5.39-13a7.45,7.45,0,0,0-1.44-5.5c-1.45-1.8-3.72-2.51-5.78-3.35-5.66-2.31-11.28-4.77-17-6.92-3.75-1.41-8.82-2.16-11.36,1.7-1.06,1.62,1.53,3.13,2.59,1.52Z" transform="translate(-19.52 -16.87)"/><path d="M23.17,82.87a5.19,5.19,0,0,1-.53-3.72l-1.84,1C29.29,81.84,36,87.66,43.53,91.48c1.73.88,4,2,5.71.41,1.31-1.26,1.18-3.2.85-4.83-.82-4.1-2.68-7.9-4.32-11.71-1.77-4.13-3.48-8.63-2.7-13.2l-2.2.9L58.08,76.16c2.26,1.72,5.16,4.78,8.31,4.16,2.79-.55,3.59-3.47,3.47-5.94-.34-6.9-2.38-13.74-3.61-20.51-1.15-6.36-1.82-13-.51-19.39.57-2.79,1.45-6.25,3.31-8.49s3.77,1,4.43,2.61A78.45,78.45,0,0,1,76.1,38c.87,3.3,1.73,6.61,2.62,9.91,1.77,6.6,3.64,13.17,5.91,19.6q1.68,4.8,3.69,9.45c1.14,2.65,2.6,5.19,5.93,4.67s5.59-3.21,7.76-5.35a47.9,47.9,0,0,1,6.88-6.09,13.87,13.87,0,0,1,4.41-2c1.64-.38,2.7.09,3.21,1.71a35.87,35.87,0,0,1,1.25,11.63c-.05,1.93,2.95,1.93,3,0a47.6,47.6,0,0,0-1-10.92c-.58-2.74-1.85-5.34-5-5.55-2.78-.18-5.67,1.37-7.88,2.91a51.37,51.37,0,0,0-6.47,5.69c-1.78,1.77-4,4.64-6.63,5.07-1.54.24-2-1.23-2.53-2.38-.76-1.72-1.47-3.47-2.15-5.22-2.46-6.37-4.46-12.9-6.29-19.47C81,44.83,79.27,38,77.42,31.3,76.69,28.65,76,25.88,74,23.86a4.66,4.66,0,0,0-6.56-.5c-2.11,1.86-3.2,5.22-4,7.84a38,38,0,0,0-1.41,9.72c-.16,6.72,1.18,13.35,2.52,19.9.82,4,1.66,7.92,2.13,11.94.14,1.14.58,3.26-.3,4.26-1.07,1.23-3.19-.7-4.07-1.36-6.66-5-13.3-10.14-19.95-15.2a1.5,1.5,0,0,0-2.2.89c-1.33,7.79,2.89,14.52,5.53,21.52a25.06,25.06,0,0,1,1.58,5.48c.08.58.21,1.36-.48,1.32A9,9,0,0,1,44,88.32c-3.47-1.86-6.75-4-10.16-6a39.53,39.53,0,0,0-12.19-5,1.53,1.53,0,0,0-1.85,1,8.34,8.34,0,0,0,.83,6c.92,1.69,3.51.18,2.59-1.52Z" transform="translate(-19.52 -16.87)"/><path d="M198.76,62.25c3.69-2.71,8.66-2.53,12.7-.66,4.68,2.16,8.23,6.08,11.65,9.81,1.18,1.27,3.17-.36,2.36-1.82a64.39,64.39,0,0,1-5-11.32c-.63-1.92-1.17-3.87-1.61-5.83-.32-1.39-.69-3-.13-4.42,1.12-2.81,5.51,1.33,6.62,2.46,2,2,3.64,4.32,5.63,6.32a12.59,12.59,0,0,0,7.93,4.09c.88.07,1.4-.75,1.5-1.5,1.4-11.15-4.36-22.77-.15-33.64.74-1.91,2.14-4.73,4.09-5.67.68-.33.82-.13,1.05.56a15.19,15.19,0,0,1,.36,1.48c.3,1.28.58,2.55.85,3.83a127.66,127.66,0,0,0,3.65,14.85c1.54,4.48,3.79,9.51,7.41,12.71a3.6,3.6,0,0,0,3,1c1.38-.26,2.19-1.38,3-2.4q2.88-3.51,6-6.84t6.38-6.48l.67-.64.34-.32c.31-.12.34-.24.11-.37,0-.56-.12.24-.1.17a5.82,5.82,0,0,0,0,.59c-.18,1.51-.66,3-1,4.52L272,61.6c-.53,2.43-1.17,5.58,1.42,7.1a8.66,8.66,0,0,0,4.09.83,33.16,33.16,0,0,0,5.27-.33c5.61-.7,12.76-2.4,17.42,1.9,1.42,1.31,3.54-.81,2.12-2.12-4.13-3.81-9.92-4-15.21-3.36a63.27,63.27,0,0,1-9.6.91c-1,0-2.74.1-3-1.18s.36-2.76.62-3.92l4.33-19.82c.43-2,1.59-5.28-.62-6.69-2.46-1.58-5,1.9-6.51,3.39q-3.32,3.27-6.43,6.74c-1,1.16-2.05,2.33-3.05,3.52-.51.6-2.09,3.16-2.86,2.89s-1.85-2-2.35-2.66a29.45,29.45,0,0,1-2.19-3.55,41,41,0,0,1-2.83-7.09c-1.54-5.09-2.43-10.33-3.6-15.51-.51-2.28-.94-5.75-4-5.78-2.56,0-4.52,2.47-5.79,4.41-7.55,11.53-.21,25.62-1.78,38.1l1.5-1.5c-2.91-.24-5.09-2.35-6.94-4.42-2.09-2.32-3.95-4.89-6.41-6.85s-7-4.17-9.22-.53c-1.89,3.11-.39,7.45.51,10.62a68.18,68.18,0,0,0,6,14.39l2.35-1.82c-3.85-4.19-7.92-8.53-13.3-10.73-4.69-1.91-10.47-2-14.68,1.12-1.54,1.13,0,3.74,1.51,2.59Z" transform="translate(-19.52 -16.87)"/></svg>