<svg id="Layer_1" data-name="Layer 1" xmlns="http://www.w3.org/2000/svg" viewBox="0 0 311.87 354.55"><path d="M141.75,107.51c1,1.07-.09,2.92-1.25,3.39-2.09.85-4.3-1.28-5.24-2.92-2.26-4-.8-10.73,4.69-10.7,2.3,0,4.13,1.66,5.51,3.33a27.92,27.92,0,0,1,3.89,6.43c2,4.55,2.12,9.88-2.15,13.15-8.38,6.42-19.48-.89-24.14-8.42a16.6,16.6,0,0,1-2-13.84,23.73,23.73,0,0,1,8.59-11.76c4-3,8.83-4.58,13.81-3.27a21.74,21.74,0,0,1,11.71,8.46c3.15,4.32,5.16,9.32,6.94,14.31a27,27,0,0,1,2,8.12,16.77,16.77,0,0,1-2.12,8.08c-4.19,8.37-10.08,16.76-18,22a31.44,31.44,0,0,1-27.14,3.46A35.79,35.79,0,0,1,96,128.83a43.86,43.86,0,0,1-3.31-28.72,55.06,55.06,0,0,1,14.64-26.84c6.61-6.65,15.33-11.86,24.83-12.6,18.63-1.47,33.16,14.58,38.1,31.16,3.25,10.88,3.43,22.35,2.76,33.59-.71,11.93-2.08,23.84-3.21,35.73l-3.43,36.17c-.57,6.08-1.19,12.15-1.71,18.24-.45,5.15-1,10.57-.09,15.7.75,4.13,3.13,8.21,7.54,9.13,5,1,10.34-1.7,14.62-4s8.27-5.55,10.16-10.19a13.43,13.43,0,0,0,.91-6.92c-.3-2.07-1.2-4.78-3.38-5.54s-4.65.34-6.34,1.71a9.19,9.19,0,0,0-3.21,5.46c-.33,1.89,2.56,2.7,2.9.8a6.26,6.26,0,0,1,4.28-5.07,1.61,1.61,0,0,1,1.8.28,3.91,3.91,0,0,1,.64,1.35,8.77,8.77,0,0,1,.39,3.84c-.6,5.5-5.1,9.24-9.66,11.69a39.92,39.92,0,0,1-7.38,3.21c-2.49.75-5.38,1.05-7.53-.72-3.57-2.94-3.27-8.84-3.14-13,.2-6.45,1-12.89,1.57-19.31l1.85-19.57,3.67-38.65c2.12-22.45,5.58-47.68-7-67.87-5-8-12.22-14.84-21.12-18.23-9.33-3.55-19.55-2.32-28.34,2.15-18.86,9.58-31.42,32.45-28.86,53.5,1.24,10.16,5.79,20,13.42,27a37,37,0,0,0,28.06,9.49c10.35-1,19-7,25.43-14.9a75.91,75.91,0,0,0,8.56-13.13A23.06,23.06,0,0,0,167,116a21.13,21.13,0,0,0-1.23-9c-3.28-10.13-8.11-21.52-18.55-26a18.08,18.08,0,0,0-15.19.18,27.51,27.51,0,0,0-11.44,10.52,20.75,20.75,0,0,0-2.91,14.7c1,5.2,4.36,9.84,8.3,13.27s9,6.08,14.41,5.9a14.45,14.45,0,0,0,11.69-6.4c3-4.81,1.55-10.6-.91-15.28-2.21-4.19-5.62-9.35-10.85-9.65S131,99,131.15,104c.11,4.73,3.72,10.64,9.13,10,3.89-.44,6.53-5.58,3.59-8.62-1.35-1.39-3.47.74-2.12,2.12Z" transform="translate(-61.02 -25.52)"/><path d="M191.41,104c-2.46,2.9-1.33,7.35,1.86,9.27,1.25.76,3.95,1.44,4.93-.08a15.54,15.54,0,0,0,1.35-3.71,20.12,20.12,0,0,0,.9-4.48c.36-4.5-2.15-9.56-7-10.35s-7.64,3.89-8.54,8c-1.78,8.14.3,19.18,10.07,20.63,8.09,1.21,16.14-4.65,18.67-12.16,1.78-5.28,1.4-11,.13-16.36a61.15,61.15,0,0,0-6-15.65c-2.4-4.25-6-8-11-9s-9,1.19-11.71,5.28c-3,4.57-4.76,10.28-5.78,15.61a52.72,52.72,0,0,0-.5,16.86c1.29,9.67,5.61,19.37,13.42,25.49,7.08,5.55,17.05,7.45,25.52,4.05,9.68-3.89,13.45-13.67,14.39-23.4a96.36,96.36,0,0,0-3.49-35.34c-2.76-9.68-7-19.47-14.26-26.65-6.43-6.34-14.93-9.78-24-8.48-8.34,1.21-15.75,6.57-17.66,15.06-1.25,5.54-.36,11.23.42,16.77.86,6.18,1.69,12.36,2.6,18.52,1.58,10.68,3.62,21.48,8.45,31.22,4.31,8.68,11,16,19.88,20,8.09,3.69,17.63,4.6,25.7.34,8.56-4.52,13.51-13.86,15.06-23.12,2-11.84-.92-23.87-3.44-35.4C237.26,67.78,231.38,47,214.21,35.58c-8.7-5.79-19.1-8.47-29.39-9.51a127.22,127.22,0,0,0-33.24,1.32C129.85,31,109,40.21,92.88,55.36a93.47,93.47,0,0,0-18.53,24c-5.4,10.13-8.51,21.24-10.3,32.54-3.68,23.14-3.73,47.12-1.62,70.41A320.9,320.9,0,0,0,88.51,283.5c4.52,10.26,9.24,20.93,16.12,29.85a48.8,48.8,0,0,0,26.17,17.21,79,79,0,0,0,30.47,1.94,91.82,91.82,0,0,0,52.78-25.39c15-14.79,23.24-34.56,28.1-54.77,5.14-21.41,7.12-43.43,11.68-65q2-9.3,4.36-18.5c1.41-5.51,2.63-11.26,4.93-16.48,1.92-4.37,4.91-8.58,9.63-10.13,4-1.33,9.1-.79,11.35,3.27,2.5,4.51.29,10.36-2,14.5a69,69,0,0,1-10.37,14.23c-3.33,3.54-7.22,6.84-9.4,11.28a17.38,17.38,0,0,0-.43,13.8c1.69,4.71,4.45,8.93,6.54,13.46a28.92,28.92,0,0,1,2.34,16.25c-1.61,11.4-8.26,21.09-14.91,30.15s-13.2,18.09-16.61,29-4.62,22.58-10.1,32.78c-10.1,18.78-30.36,29.93-51.08,32.39a98.45,98.45,0,0,1-35.65-2.49c-2.7-.69-5.34-1.66-7.15-3.89a17.89,17.89,0,0,1-3.08-7.19,49.67,49.67,0,0,1-.86-18.62c.73-5,1.86-11.78,7.17-13.95,2.62-1.07,5.57-1.2,8.36-1.36s5.58-.2,8.38-.3c5.37-.2,10.91-.59,16-2.53a29.06,29.06,0,0,0,11.22-7.89c6.34-7.09,9.93-16.08,15.59-23.65s13.14-13.32,18.92-20.68a35.41,35.41,0,0,0,6.32-11.45c1.4-4.62,1.24-9.36.56-14.08-.73-5.13-2.1-10.24-2-15.46a15.8,15.8,0,0,1,5.88-12.35c3.28-2.81,7.18-5,9.94-8.37,3-3.66,3.49-8,3.35-12.56-.15-5.1-.62-10.1,3.95-13.45,1.89-1.38,3.91-2.58,5.3-4.53s2-4.57,2.9-6.91c3.49-9.42,11.62-17.71,22-18.57a19.91,19.91,0,0,1,14.35,4.12,21.48,21.48,0,0,1,7,12.67,30.35,30.35,0,0,1-1.8,16,48.29,48.29,0,0,1-3.78,7.75c-1.42,2.37-3.14,4.56-4.45,7a14.07,14.07,0,0,0-.34,12.92c1.93,4.41,5.1,8.14,7.21,12.45,5.31,10.83-1.3,22.36-7.39,31.26-3.14,4.59-6.44,9.12-8.82,14.17a55.88,55.88,0,0,0-4.45,16.7c-.79,5.88-1.19,11.8-2.44,17.61a92.61,92.61,0,0,1-5.63,17.08,276.91,276.91,0,0,1-16,30.61c-5.51,9.33-12.12,18.16-21.55,23.83-10.15,6.09-21.9,10.07-33.25,13.22a180.26,180.26,0,0,1-35.87,6.18c-5.89.4-11.81.53-17.72.35-5.24-.16-10.8-.6-15.44-3.26-5-2.84-7.54-8.11-9.84-13.1a91.25,91.25,0,0,1-5.9-16.85c-2.67-11.08-2.88-22.78.63-33.71,3.18-9.86,9.29-18.7,18-24.4,8.29-5.4,18-8,27.43-10.45s19.28-4.91,28-9.76a49.25,49.25,0,0,0,20.22-21.36c4.38-9,5.27-19,6.06-28.86.81-10,1.68-20.4,7.23-29.08,1-1.63-1.56-3.14-2.59-1.51-11.18,17.49-4.43,39.9-13.41,58.18a46.81,46.81,0,0,1-20.42,20.79c-8.58,4.48-18.12,6.66-27.41,9.11-9.1,2.4-18.38,5.07-26.36,10.21a47.71,47.71,0,0,0-18.1,22.16A60.88,60.88,0,0,0,104.69,336a86.3,86.3,0,0,0,10.62,31.76,21.87,21.87,0,0,0,10.63,9.78c4.62,1.9,9.72,2.3,14.67,2.44a184,184,0,0,0,68.25-11.21c10.28-3.8,20.76-8.14,28.8-15.81,7.45-7.11,12.73-16.14,17.63-25.11,5.39-9.87,10.87-19.81,14.71-30.41a82.7,82.7,0,0,0,4.19-16.61c.82-5.73,1.18-11.51,2.27-17.19a46.88,46.88,0,0,1,6.06-15.78c2.84-4.7,6.2-9,9.1-13.71,5.41-8.66,9.18-19.42,4.59-29.24-2-4.22-5-7.83-7-12a12.92,12.92,0,0,1-1.47-6.35c.17-2.69,1.64-5,3.1-7.17,5.74-8.57,10.35-18.4,8.84-29-1.34-9.44-7.6-17.69-17.17-19.8s-19.09,1.69-25.43,8.84A36,36,0,0,0,250,151.63c-.89,2.54-1.57,5-3.7,6.83-1.72,1.45-3.79,2.47-5.33,4.14-3.18,3.47-3.16,8.2-3,12.62.17,4.73.11,9.16-3.32,12.79-2.9,3.07-6.65,5.14-9.75,8A18,18,0,0,0,219,207.27c-1.2,9.89,4.07,19.59,1.89,29.46-1.94,8.8-8.73,15.41-14.84,21.57a125.39,125.39,0,0,0-9.28,10,95.69,95.69,0,0,0-7.49,11.4c-4.59,7.83-9.41,16.47-18.19,20.19-5,2.1-10.47,2.48-15.81,2.68s-10.7-.07-15.79,1.21-8,4.86-9.48,9.66a49.75,49.75,0,0,0-2.09,16.77c.2,5.24,1,10.86,3.2,15.65s6.43,6.94,11.39,8.12a103.27,103.27,0,0,0,34.32,2.53c20-2.07,39.27-11.39,51.16-28,6.28-8.75,9-18.84,11.45-29.17a100.24,100.24,0,0,1,4.93-16.4,80.48,80.48,0,0,1,8.23-14.17c6.25-8.92,13.41-17.31,17.72-27.42,4.11-9.68,5.28-20.08.85-29.85-2.06-4.54-4.93-8.75-6.52-13.5a14.49,14.49,0,0,1,1.93-13.7c3-4.19,7.12-7.51,10.41-11.48a61.92,61.92,0,0,0,8.81-13.49c1.84-4.08,3.22-9,1.73-13.4a10.73,10.73,0,0,0-8.76-7.22,15.65,15.65,0,0,0-11.45,3c-3.81,2.85-6.16,7.19-7.8,11.56A149.54,149.54,0,0,0,255,169.39c-1.51,5.93-2.91,11.87-4.16,17.85-2.25,10.68-3.9,21.47-5.59,32.25-3.2,20.45-6.55,41.42-15.57,60.25a87.87,87.87,0,0,1-40.86,41.53c-17.65,8.61-39,11.71-58,6.16a46,46,0,0,1-25.47-18.23c-6.29-9.05-10.85-19.45-15.2-29.52a319.73,319.73,0,0,1-25.88-133.3c.52-22.44,2.24-46.41,13.26-66.46,9.84-17.9,25.87-31.85,44.31-40.4a122.12,122.12,0,0,1,65-10.23c10.12,1.26,20.34,4.39,28.47,10.73,7.7,6,12.91,14.54,16.44,23.54,3.61,9.19,5.73,18.88,7.78,28.51,2.41,11.35,4.81,23.41,1.19,34.77-2.86,9-9.58,16.7-19.24,18.15-8.89,1.33-18.14-2.54-24.77-8.3-7.75-6.74-12-16.5-14.61-26.25-2.88-10.84-4.05-22.1-5.6-33.19-1.34-9.6-3.59-21.56,5.95-27.75,6.83-4.44,16.16-4.38,23.21-.48,8.76,4.87,14.28,14,17.75,23.1a95.68,95.68,0,0,1,6.11,34.47c-.06,9.71-1.28,21.7-10.73,26.95-8,4.46-18.54,2.62-25.38-3.19-7.71-6.55-11.43-16.79-12-26.68a50.13,50.13,0,0,1,2-16.79A46.16,46.16,0,0,1,186.46,79c1.13-2.23,2.59-4.58,5-5.63,4.94-2.2,10.13,1.61,12.75,5.56A52.26,52.26,0,0,1,210.51,94c1.49,5.49,2.09,11.45.05,16.88a15.28,15.28,0,0,1-8.24,8.38c-3.18,1.38-7,1.74-10.12-.1-3.94-2.37-5.07-7.23-4.92-11.52.12-3.21,1.22-11.57,6.27-9.92,6.19,2,3.52,10.07,1.91,14.3l1-1c-2.33.51-4.55-3-3-4.87,1.24-1.46-.87-3.6-2.12-2.12Z" transform="translate(-61.02 -25.52)"/><path d="M221.47,177.53c2.3-6.34,4.63-12.71,8-18.56a50.71,50.71,0,0,1,13.11-14.61c5.19-4,10.85-7.41,16.27-11.13a146.22,146.22,0,0,0,15.19-11.87c9.39-8.47,17.65-18.5,23.07-30,5.63-11.94,8.21-25.45,6.38-38.6a55.88,55.88,0,0,0-2.14-9.38c-.94-2.86-2-5.81-4-8.12-1.76-2-4.59-3.7-7.27-2.41s-3.25,4.24-2.84,6.87c.85,5.51,5.24,9.71,9.74,12.55,5.53,3.5,11.85,5.79,17.83,8.39L336.3,70c3.3,1.44,6.72,2.73,9.92,4.39,2.34,1.22,5.48,3.66,4.45,6.74-.52,1.52-2.23,2.26-3.52,3q-2.23,1.3-4.38,2.74a89.1,89.1,0,0,0-7.9,5.9,87.93,87.93,0,0,0-7.4,6.91c-1.9,2-4,4.12-4.4,7a4.12,4.12,0,0,0,4.53,4.86,47.72,47.72,0,0,0,5.27-.84l6.08-1,11.2-1.91a31.12,31.12,0,0,1,7.88-.61c2.18.18,4.66.86,5.84,2.87,1.35,2.28.41,4.8-1.19,6.67a21,21,0,0,1-7.37,5.17c-3.29,1.52-6.67,2.87-10.09,4.07s-6.77,2.18-10.21,3.1c-2.57.69-5.32,1.56-7.28,3.45a6.57,6.57,0,0,0-1.77,6.77,10,10,0,0,0,5.39,5.38,24.75,24.75,0,0,0,8.91,2c3.69.29,7.4.23,11.1.47,5.78.38,12.1,1.74,16.22,6.15a11.29,11.29,0,0,1,2.12,3.17c.62,1.42-.06,2.08-1.4,2.51a16.71,16.71,0,0,1-4.23.5l-6,.33c-7.79.44-15.58.85-23.37,1.31-2.88.17-6,.47-8.2,2.57a8.26,8.26,0,0,0-2.1,7.27c1,6.41,7.74,9.22,13.39,10.31,6.6,1.26,13.81.93,19.81,4.34a11.55,11.55,0,0,1,5.5,6.08,8.32,8.32,0,0,1-.7,7.47c-3.54,4.92-11.21,2.09-16,1.25-5.9-1-11.68-.3-16.58,3.36a17,17,0,0,0-5.76,7,5.85,5.85,0,0,0,2.34,7.17c2.57,1.78,6,2,9,1.89a75.89,75.89,0,0,0,10.68-1.82c5-1,11.47-1.63,15.58,2.08s2.78,10.14-.78,13.87c-4.43,4.64-11.51,5.4-17.56,5.66-6.53.27-13.65.34-18.69,5.13a10.81,10.81,0,0,0-1.3,14.62c3.47,4.59,9,6.78,14.41,8s11.55,2.1,15.7,6.23a1.5,1.5,0,0,0,2.12-2.12c-4.27-4.25-10.22-5.48-15.88-6.74-5.18-1.16-11-2.83-14.15-7.45a7.62,7.62,0,0,1-1.12-7,10.76,10.76,0,0,1,5.63-5.67c3.09-1.49,6.66-1.75,10-1.9a94,94,0,0,0,9.92-.73c5.9-.9,11.83-3.34,15.09-8.6,2.83-4.57,3.16-10.62-.61-14.77-3.52-3.88-9.39-4.73-14.36-4.29-6.51.59-13.54,4-20.08,2a5.63,5.63,0,0,1-3-1.84c-1-1.3-.25-2.81.5-4a16.62,16.62,0,0,1,14.66-7.63,67.59,67.59,0,0,1,8.78,1.47c5.25.94,11.66.94,14.48-4.53,2.54-4.9.72-11-3.24-14.56-4.83-4.33-11.4-5.3-17.59-6a49.19,49.19,0,0,1-10.21-1.92c-2.64-.92-5.47-2.54-6.63-5.22-1-2.22-.8-5.25,1.36-6.72a8.38,8.38,0,0,1,4-1.14c1.84-.18,3.69-.23,5.53-.33l22.87-1.28c2.88-.16,6.22.07,8.88-1.29s3-4.14,1.68-6.7c-2.5-5-7.78-7.94-13-9.32-6.79-1.81-13.9-1-20.81-1.81a14.61,14.61,0,0,1-7.71-2.72c-1.75-1.4-2.77-3.65-1.21-5.63s4.44-2.61,6.71-3.21c3.48-.92,6.93-2,10.33-3.17s6.69-2.55,9.94-4a26.26,26.26,0,0,0,7.39-4.78,11.12,11.12,0,0,0,3.73-6.88,7.68,7.68,0,0,0-2.8-6.5c-3.93-3.22-9.75-2.59-14.4-1.79l-11.19,1.91c-3.69.64-7.4,1.45-11.12,1.91-1.11.13-2.16,0-2-1.31a6.54,6.54,0,0,1,1.69-3.3,74.7,74.7,0,0,1,7-7,86.1,86.1,0,0,1,7.8-6.19c2.67-1.87,5.59-3.35,8.25-5.22a6.54,6.54,0,0,0,2.74-7.55c-.93-3-3.42-5-6.12-6.3-3.26-1.62-6.68-3-10-4.4l-10.5-4.57c-6.87-3-13.76-5.93-20.6-9-4.88-2.16-10.13-4.67-13.5-9-1.49-1.9-2.89-4.62-2.58-7.12.13-1,.72-2.15,1.89-2.19s2.43,1.1,3.2,2c2,2.29,2.87,5.56,3.7,8.4a54.35,54.35,0,0,1,1.84,9.46,62.69,62.69,0,0,1-1.13,19.32c-2.68,12.57-8.92,24-17.17,33.81S264.43,126,253.89,133a165.41,165.41,0,0,0-15.68,11.09A51.67,51.67,0,0,0,226.07,159a127.89,127.89,0,0,0-7.49,17.78c-.66,1.82,2.24,2.6,2.89.8Z" transform="translate(-61.02 -25.52)"/></svg>